<svg width="540" height="162" viewBox="0 0 540 162" fill="none" xmlns="http://www.w3.org/2000/svg">
<path d="M66.902 81.6148H57.2517V93.4583C57.2517 94.4331 57.3004 95.3347 57.3979 96.1633C57.4954 96.9431 57.7147 97.6255 58.0559 98.2103C58.397 98.7952 58.9088 99.2582 59.5911 99.5994C60.3222 99.8918 61.2726 100.038 62.4424 100.038C63.0272 100.038 63.7827 99.9893 64.7087 99.8918C65.6835 99.7456 66.4146 99.4532 66.902 99.0145V108.153C65.6835 108.592 64.4163 108.884 63.1003 109.03C61.7844 109.177 60.4928 109.25 59.2256 109.25C57.3735 109.25 55.6677 109.055 54.108 108.665C52.5484 108.275 51.1837 107.666 50.014 106.837C48.8442 105.96 47.9182 104.839 47.2359 103.474C46.6023 102.109 46.2855 100.452 46.2855 98.5028V81.6148H39.2671V72.8418H46.2855V62.3142H57.2517V72.8418H66.902V81.6148Z" fill="#FF5740"/>
<path d="M72.4747 72.8418H83.441V78.5442H83.5872C84.7569 76.351 86.146 74.7183 87.7544 73.646C89.3627 72.525 91.3854 71.9645 93.8223 71.9645C94.4559 71.9645 95.0895 71.9889 95.7231 72.0376C96.3567 72.0864 96.9416 72.1838 97.4777 72.33V82.3459C96.6979 82.1022 95.9181 81.9316 95.1383 81.8341C94.4072 81.6879 93.6274 81.6148 92.7988 81.6148C90.703 81.6148 89.0459 81.9072 87.8275 82.4921C86.609 83.0769 85.6586 83.9055 84.9762 84.9778C84.3426 86.0013 83.9284 87.2441 83.7334 88.7063C83.5384 90.1684 83.441 91.7768 83.441 93.5314V108.372H72.4747V72.8418Z" fill="#FF5740"/>
<path d="M124.544 103.913H124.398C123.18 105.814 121.547 107.178 119.5 108.007C117.502 108.835 115.381 109.25 113.139 109.25C111.482 109.25 109.874 109.006 108.314 108.519C106.803 108.08 105.463 107.398 104.293 106.472C103.124 105.546 102.198 104.4 101.515 103.035C100.833 101.671 100.492 100.087 100.492 98.2834C100.492 96.2364 100.857 94.5062 101.588 93.0928C102.368 91.6793 103.392 90.5096 104.659 89.5836C105.975 88.6575 107.461 87.9508 109.118 87.4634C110.776 86.9273 112.481 86.5374 114.236 86.2937C116.039 86.05 117.818 85.9038 119.573 85.8551C121.376 85.8063 123.033 85.7819 124.544 85.7819C124.544 83.8324 123.838 82.2971 122.424 81.1761C121.059 80.0064 119.427 79.4215 117.526 79.4215C115.723 79.4215 114.065 79.8114 112.555 80.5913C111.092 81.3224 109.776 82.3459 108.607 83.6618L102.758 77.6669C104.805 75.7661 107.193 74.3527 109.923 73.4267C112.652 72.4519 115.479 71.9645 118.403 71.9645C121.62 71.9645 124.252 72.3788 126.299 73.2073C128.395 73.9872 130.052 75.1569 131.27 76.7165C132.537 78.2762 133.415 80.2014 133.902 82.4921C134.39 84.7341 134.633 87.3416 134.633 90.3147V108.372H124.544V103.913ZM121.839 92.8003C121.011 92.8003 119.963 92.8491 118.696 92.9466C117.477 92.9953 116.283 93.1902 115.113 93.5314C113.992 93.8726 113.018 94.3843 112.189 95.0667C111.409 95.749 111.019 96.6994 111.019 97.9179C111.019 99.2339 111.58 100.209 112.701 100.842C113.822 101.476 114.992 101.793 116.21 101.793C117.282 101.793 118.306 101.646 119.281 101.354C120.304 101.062 121.206 100.647 121.986 100.111C122.765 99.575 123.375 98.8927 123.813 98.0641C124.301 97.2356 124.544 96.2608 124.544 95.1398V92.8003H121.839Z" fill="#FF5740"/>
<path d="M165.566 84.3198C165.03 83.54 164.274 82.9064 163.3 82.419C162.325 81.8828 161.277 81.6148 160.156 81.6148C157.378 81.6148 155.209 82.4433 153.649 84.1005C152.138 85.7576 151.383 87.9265 151.383 90.6071C151.383 93.2877 152.138 95.4566 153.649 97.1137C155.209 98.7708 157.378 99.5994 160.156 99.5994C161.374 99.5994 162.422 99.3313 163.3 98.7952C164.177 98.2591 164.932 97.6255 165.566 96.8944L172.804 104.498C171.098 106.252 169.075 107.495 166.736 108.226C164.445 108.909 162.252 109.25 160.156 109.25C157.427 109.25 154.843 108.811 152.407 107.934C150.018 107.056 147.923 105.814 146.119 104.205C144.365 102.548 142.976 100.574 141.952 98.2834C140.929 95.9927 140.417 93.4339 140.417 90.6071C140.417 87.7802 140.929 85.2215 141.952 82.9307C142.976 80.64 144.365 78.6905 146.119 77.0821C147.923 75.425 150.018 74.1578 152.407 73.2805C154.843 72.4032 157.427 71.9645 160.156 71.9645C162.252 71.9645 164.445 72.33 166.736 73.0611C169.075 73.7435 171.098 74.9619 172.804 76.7165L165.566 84.3198Z" fill="#FF5740"/>
<path d="M176.782 53.1026H187.749V86.8786L199.885 72.8418H213.336L199.227 88.8525L213.702 108.372H199.885L187.895 90.3878H187.749V108.372H176.782V53.1026Z" fill="#FF5740"/>
<path d="M251.036 102.231C249.281 104.473 247.063 106.203 244.383 107.422C241.702 108.64 238.924 109.25 236.049 109.25C233.319 109.25 230.736 108.811 228.299 107.934C225.911 107.056 223.815 105.814 222.012 104.205C220.257 102.548 218.868 100.574 217.845 98.2834C216.821 95.9927 216.309 93.4339 216.309 90.6071C216.309 87.7802 216.821 85.2215 217.845 82.9307C218.868 80.64 220.257 78.6905 222.012 77.0821C223.815 75.425 225.911 74.1578 228.299 73.2805C230.736 72.4032 233.319 71.9645 236.049 71.9645C238.583 71.9645 240.874 72.4032 242.921 73.2805C245.016 74.1578 246.771 75.425 248.184 77.0821C249.647 78.6905 250.768 80.64 251.547 82.9307C252.327 85.2215 252.717 87.7802 252.717 90.6071V94.0432H227.276C227.714 96.1389 228.665 97.8204 230.127 99.0876C231.589 100.306 233.392 100.915 235.537 100.915C237.34 100.915 238.851 100.525 240.069 99.7456C241.337 98.9171 242.433 97.8692 243.359 96.602L251.036 102.231ZM241.751 86.5861C241.8 84.7341 241.19 83.1501 239.923 81.8341C238.656 80.5182 237.023 79.8602 235.025 79.8602C233.807 79.8602 232.734 80.0551 231.808 80.4451C230.882 80.835 230.078 81.3467 229.396 81.9803C228.762 82.5652 228.25 83.2719 227.86 84.1005C227.519 84.8803 227.324 85.7088 227.276 86.5861H241.751Z" fill="#FF5740"/>
<path d="M259.386 72.8418H270.352V78.5442H270.498C271.668 76.351 273.057 74.7183 274.666 73.646C276.274 72.525 278.297 71.9645 280.734 71.9645C281.367 71.9645 282.001 71.9889 282.634 72.0376C283.268 72.0864 283.853 72.1838 284.389 72.33V82.3459C283.609 82.1022 282.829 81.9316 282.05 81.8341C281.318 81.6879 280.539 81.6148 279.71 81.6148C277.614 81.6148 275.957 81.9072 274.739 82.4921C273.52 83.0769 272.57 83.9055 271.888 84.9778C271.254 86.0013 270.84 87.2441 270.645 88.7063C270.45 90.1684 270.352 91.7768 270.352 93.5314V108.372H259.386V72.8418Z" fill="#FF5740"/>
<path d="M27.6349 21.3006H17.9846V33.1441C17.9846 34.1189 18.0333 35.0205 18.1308 35.8491C18.2283 36.6289 18.4476 37.3112 18.7888 37.8961C19.13 38.481 19.6417 38.944 20.3241 39.2852C21.0552 39.5776 22.0056 39.7238 23.1753 39.7238C23.7602 39.7238 24.5156 39.6751 25.4416 39.5776C26.4164 39.4314 27.1475 39.1389 27.6349 38.7003V47.8388C26.4164 48.2775 25.1492 48.5699 23.8333 48.7161C22.5173 48.8623 21.2257 48.9354 19.9585 48.9354C18.1065 48.9354 16.4006 48.7405 14.841 48.3506C13.2813 47.9607 11.9166 47.3514 10.7469 46.5229C9.57717 45.6456 8.65113 44.5246 7.96879 43.1599C7.33519 41.7952 7.01838 40.1381 7.01838 38.1885V21.3006H0V12.5276H7.01838V2H17.9846V12.5276H27.6349V21.3006Z" fill="#00657C"/>
<path d="M33.2077 12.5276H44.1739V18.23H44.3201C45.4898 16.0368 46.8789 14.404 48.4873 13.3318C50.0957 12.2108 52.1183 11.6503 54.5553 11.6503C55.1889 11.6503 55.8225 11.6746 56.4561 11.7234C57.0897 11.7721 57.6745 11.8696 58.2107 12.0158V22.0316C57.4308 21.7879 56.651 21.6174 55.8712 21.5199C55.1401 21.3737 54.3603 21.3006 53.5317 21.3006C51.436 21.3006 49.7789 21.593 48.5604 22.1779C47.3419 22.7627 46.3915 23.5913 45.7092 24.6635C45.0756 25.687 44.6613 26.9299 44.4663 28.392C44.2714 29.8542 44.1739 31.4626 44.1739 33.2172V48.0581H33.2077V12.5276Z" fill="#00657C"/>
<path d="M95.3239 41.9171C93.5693 44.159 91.3517 45.8893 88.6711 47.1077C85.9904 48.3262 83.2123 48.9354 80.3367 48.9354C77.6074 48.9354 75.0242 48.4968 72.5873 47.6195C70.1991 46.7422 68.1033 45.4994 66.3 43.891C64.5454 42.2339 63.1563 40.2599 62.1328 37.9692C61.1093 35.6785 60.5975 33.1197 60.5975 30.2929C60.5975 27.466 61.1093 24.9072 62.1328 22.6165C63.1563 20.3258 64.5454 18.3762 66.3 16.7678C68.1033 15.1107 70.1991 13.8435 72.5873 12.9662C75.0242 12.0889 77.6074 11.6503 80.3367 11.6503C82.8711 11.6503 85.1619 12.0889 87.2089 12.9662C89.3047 13.8435 91.0593 15.1107 92.4727 16.7678C93.9348 18.3762 95.0558 20.3258 95.8357 22.6165C96.6155 24.9072 97.0054 27.466 97.0054 30.2929V33.7289H71.5637C72.0024 35.8247 72.9528 37.5062 74.415 38.7734C75.8771 39.9919 77.6805 40.6011 79.825 40.6011C81.6283 40.6011 83.1392 40.2112 84.3577 39.4314C85.6249 38.6028 86.7215 37.5549 87.6475 36.2877L95.3239 41.9171ZM86.0392 26.2719C86.0879 24.4198 85.4787 22.8358 84.2115 21.5199C82.9443 20.2039 81.3115 19.546 79.3132 19.546C78.0947 19.546 77.0225 19.7409 76.0965 20.1308C75.1704 20.5207 74.3662 21.0325 73.6839 21.6661C73.0503 22.251 72.5385 22.9577 72.1486 23.7862C71.8074 24.5661 71.6125 25.3946 71.5637 26.2719H86.0392Z" fill="#00657C"/>
<path d="M125.972 43.5985H125.826C124.608 45.4994 122.975 46.864 120.928 47.6926C118.929 48.5212 116.809 48.9354 114.567 48.9354C112.91 48.9354 111.302 48.6917 109.742 48.2044C108.231 47.7657 106.891 47.0834 105.721 46.1573C104.552 45.2313 103.625 44.0859 102.943 42.7212C102.261 41.3566 101.92 39.7726 101.92 37.9692C101.92 35.9222 102.285 34.192 103.016 32.7785C103.796 31.3651 104.82 30.1954 106.087 29.2693C107.403 28.3433 108.889 27.6366 110.546 27.1492C112.204 26.6131 113.909 26.2232 115.664 25.9795C117.467 25.7358 119.246 25.5896 121.001 25.5408C122.804 25.4921 124.461 25.4677 125.972 25.4677C125.972 23.5182 125.265 21.9829 123.852 20.8619C122.487 19.6922 120.855 19.1073 118.954 19.1073C117.15 19.1073 115.493 19.4972 113.982 20.277C112.52 21.0081 111.204 22.0316 110.035 23.3476L104.186 17.3527C106.233 15.4519 108.621 14.0385 111.351 13.1124C114.08 12.1377 116.907 11.6503 119.831 11.6503C123.048 11.6503 125.68 12.0646 127.727 12.8931C129.823 13.6729 131.48 14.8427 132.698 16.4023C133.965 17.962 134.843 19.8871 135.33 22.1779C135.817 24.4198 136.061 27.0274 136.061 30.0004V48.0581H125.972V43.5985ZM123.267 32.4861C122.439 32.4861 121.391 32.5348 120.124 32.6323C118.905 32.6811 117.711 32.876 116.541 33.2172C115.42 33.5584 114.445 34.0701 113.617 34.7525C112.837 35.4348 112.447 36.3852 112.447 37.6037C112.447 38.9196 113.008 39.8944 114.129 40.528C115.25 41.1616 116.419 41.4784 117.638 41.4784C118.71 41.4784 119.734 41.3322 120.708 41.0398C121.732 40.7473 122.634 40.333 123.413 39.7969C124.193 39.2608 124.802 38.5785 125.241 37.7499C125.729 36.9213 125.972 35.9466 125.972 34.8256V32.4861H123.267Z" fill="#00657C"/>
<path d="M163.046 22.982C161.438 20.9838 159.318 19.9846 156.686 19.9846C155.76 19.9846 154.858 20.2039 153.981 20.6426C153.103 21.0812 152.665 21.8367 152.665 22.9089C152.665 23.7862 153.103 24.4442 153.981 24.8829C154.907 25.2728 156.052 25.6383 157.417 25.9795C158.83 26.2719 160.317 26.6131 161.876 27.003C163.485 27.3442 164.971 27.9047 166.336 28.6845C167.749 29.4643 168.895 30.5366 169.772 31.9012C170.698 33.2172 171.161 34.9962 171.161 37.2381C171.161 39.5289 170.649 41.4297 169.626 42.9406C168.651 44.4027 167.384 45.5968 165.824 46.5229C164.265 47.4002 162.51 48.0094 160.56 48.3506C158.611 48.7405 156.686 48.9354 154.785 48.9354C152.299 48.9354 149.789 48.5943 147.255 47.9119C144.72 47.1808 142.576 45.9136 140.821 44.1103L147.474 36.7264C148.498 37.9936 149.619 38.9684 150.837 39.6507C152.104 40.2843 153.566 40.6011 155.223 40.6011C156.491 40.6011 157.636 40.4305 158.66 40.0894C159.683 39.6994 160.195 39.0171 160.195 38.0423C160.195 37.1163 159.732 36.4339 158.806 35.9953C157.928 35.5079 156.783 35.118 155.37 34.8256C154.005 34.4844 152.518 34.1432 150.91 33.8021C149.35 33.4121 147.864 32.8516 146.45 32.1206C145.086 31.3895 143.94 30.366 143.014 29.05C142.137 27.6853 141.698 25.882 141.698 23.64C141.698 21.5443 142.113 19.7409 142.941 18.23C143.819 16.7191 144.94 15.4763 146.304 14.5015C147.718 13.5267 149.326 12.82 151.129 12.3814C152.933 11.894 154.76 11.6503 156.613 11.6503C158.952 11.6503 161.316 11.9915 163.704 12.6738C166.092 13.3561 168.115 14.5746 169.772 16.3292L163.046 22.982Z" fill="#00657C"/>
<path d="M210.997 48.0581H200.469V43.233H200.323C199.933 43.9153 199.422 44.5977 198.788 45.28C198.203 45.9624 197.472 46.5716 196.595 47.1077C195.717 47.6439 194.718 48.0825 193.597 48.4237C192.476 48.7649 191.258 48.9354 189.942 48.9354C187.164 48.9354 184.897 48.5212 183.143 47.6926C181.437 46.8153 180.097 45.6212 179.122 44.1103C178.196 42.5994 177.562 40.8204 177.221 38.7734C176.929 36.7264 176.782 34.5088 176.782 32.1206V12.5276H187.749V29.9273C187.749 30.9508 187.773 32.0231 187.822 33.1441C187.919 34.2163 188.139 35.2155 188.48 36.1415C188.87 37.0676 189.43 37.823 190.161 38.4079C190.941 38.9927 192.038 39.2852 193.451 39.2852C194.864 39.2852 196.01 39.0415 196.887 38.5541C197.764 38.018 198.422 37.3356 198.861 36.5071C199.348 35.6298 199.665 34.655 199.811 33.5827C199.958 32.5105 200.031 31.3895 200.031 30.2198V12.5276H210.997V48.0581Z" fill="#00657C"/>
<path d="M218.762 12.5276H229.729V18.23H229.875C231.045 16.0368 232.434 14.404 234.042 13.3318C235.65 12.2108 237.673 11.6503 240.11 11.6503C240.744 11.6503 241.377 11.6746 242.011 11.7234C242.644 11.7721 243.229 11.8696 243.765 12.0158V22.0316C242.986 21.7879 242.206 21.6174 241.426 21.5199C240.695 21.3737 239.915 21.3006 239.087 21.3006C236.991 21.3006 235.334 21.593 234.115 22.1779C232.897 22.7627 231.946 23.5913 231.264 24.6635C230.63 25.687 230.216 26.9299 230.021 28.392C229.826 29.8542 229.729 31.4626 229.729 33.2172V48.0581H218.762V12.5276Z" fill="#00657C"/>
<path d="M269.004 53.8337C268.273 55.7345 267.567 57.416 266.884 58.8782C266.202 60.3403 265.325 61.5588 264.252 62.5336C263.229 63.5571 261.913 64.3125 260.304 64.7999C258.696 65.336 256.576 65.6041 253.944 65.6041C251.117 65.6041 248.388 65.1655 245.756 64.2882L247.218 55.2959C248.875 56.0269 250.581 56.3925 252.336 56.3925C253.554 56.3925 254.553 56.2463 255.333 55.9538C256.113 55.7101 256.747 55.3202 257.234 54.7841C257.77 54.2967 258.209 53.6875 258.55 52.9564C258.891 52.2253 259.257 51.3724 259.646 50.3976L260.451 48.3506L244.879 12.5276H256.722L265.861 35.9953H266.007L273.829 12.5276H285.088L269.004 53.8337Z" fill="#00657C"/>
<rect x="326.088" y="1" width="183.481" height="98.4513" rx="6" fill="#00657C" stroke="#FFD426" stroke-width="2"/>
<rect x="340.314" y="15.2266" width="183.481" height="98.4513" rx="6" fill="#00657C" stroke="#FFD426" stroke-width="2"/>
<rect x="354.54" y="29.4512" width="183.481" height="98.4513" rx="6" fill="#00657C" stroke="#FFD426" stroke-width="2"/>
<path d="M526.671 148.659C529.406 151.375 529.823 155.392 527.601 157.63C525.379 159.868 521.359 159.481 518.624 156.765L470.222 108.716L478.269 100.61L526.671 148.659Z" fill="#FFD426" stroke="#00657C" stroke-width="0.5"/>
<path d="M475.302 80.6306C475.302 65.5812 463.117 53.423 448.139 53.4229C433.16 53.4229 420.975 65.5811 420.975 80.6306C420.975 95.68 433.16 107.838 448.139 107.838C463.117 107.838 475.302 95.6799 475.302 80.6306ZM483.039 80.6306C483.039 99.8819 467.436 115.531 448.139 115.531C428.841 115.531 413.239 99.882 413.239 80.6306C413.239 61.3791 428.841 45.7305 448.139 45.7305C467.436 45.7306 483.039 61.3792 483.039 80.6306Z" fill="#FFD426" stroke="#00657C" stroke-width="0.5"/>
<circle cx="448.192" cy="80.335" r="25.3819" fill="#FFD426"/>
<path d="M448.553 101.795C448.077 101.795 447.838 101.543 447.838 101.038V97.1185C445.468 97.0443 443.681 96.7102 442.475 96.1163C441.269 95.5076 440.399 94.8469 439.866 94.1342C439.74 93.9412 439.628 93.7556 439.53 93.5775C439.432 93.3993 439.362 93.1989 439.32 92.9762C439.264 92.6792 439.207 92.2932 439.151 91.8181C439.095 91.3282 439.088 90.764 439.13 90.1256C439.144 89.8583 439.193 89.6727 439.278 89.5688C439.376 89.45 439.537 89.3609 439.761 89.3015C440.168 89.1976 440.729 89.1382 441.444 89.1234C442.173 89.1085 442.678 89.116 442.958 89.1456C443.281 89.1753 443.533 89.2496 443.716 89.3684C443.898 89.4723 444.143 89.7098 444.452 90.081C444.83 90.5561 445.244 90.957 445.693 91.2836C446.155 91.6103 446.871 91.8181 447.838 91.9072V83.578C447.614 83.5038 447.368 83.4221 447.102 83.333C444.494 82.5016 442.559 81.4178 441.297 80.0815C440.035 78.7453 439.404 76.7707 439.404 74.1576C439.404 72.4502 439.775 70.9729 440.519 69.7257C441.262 68.4786 442.264 67.4838 443.526 66.7415C444.802 65.9843 446.24 65.5092 447.838 65.3162V61.8197C447.838 61.3149 448.077 61.0625 448.553 61.0625H450.152C450.657 61.0625 450.909 61.3149 450.909 61.8197V65.2494C452.437 65.3533 453.692 65.5908 454.674 65.962C455.67 66.3332 456.434 66.7415 456.967 67.1869C457.514 67.6175 457.871 67.9812 458.039 68.2782C458.152 68.4712 458.222 68.6196 458.25 68.7236C458.292 68.8126 458.32 68.9388 458.334 69.1022C458.376 69.5624 458.39 70.0746 458.376 70.6388C458.362 71.203 458.313 71.8414 458.229 72.5541C458.187 72.7916 458.11 72.955 457.997 73.044C457.899 73.1183 457.745 73.1554 457.535 73.1554C456.174 73.1851 455.123 73.1109 454.38 72.9327C454.085 72.8585 453.875 72.7842 453.749 72.71C453.636 72.6209 453.482 72.4427 453.286 72.1755C453.09 71.9231 452.816 71.6336 452.466 71.3069C452.115 70.9803 451.596 70.7279 450.909 70.5497V78.5894C451.105 78.6488 451.316 78.7156 451.54 78.7898C453.153 79.3095 454.548 79.9256 455.726 80.6383C456.918 81.351 457.836 82.2715 458.481 83.3998C459.14 84.5282 459.47 85.9832 459.47 87.7649C459.47 89.6356 459.091 91.2168 458.334 92.5085C457.591 93.8002 456.567 94.8172 455.263 95.5596C453.973 96.3019 452.522 96.7844 450.909 97.0071V101.038C450.909 101.543 450.671 101.795 450.194 101.795H448.553ZM445.293 73.534C445.293 74.4842 445.482 75.2488 445.861 75.8279C446.254 76.4069 446.913 76.9265 447.838 77.3868V70.5052C446.141 70.8318 445.293 71.8414 445.293 73.534ZM453.58 88.4553C453.58 87.5496 453.37 86.8147 452.949 86.2505C452.543 85.6863 451.863 85.1815 450.909 84.7361V91.7958C451.778 91.6177 452.437 91.2613 452.886 90.7269C453.349 90.1924 453.58 89.4352 453.58 88.4553Z" fill="#00657C"/>
<path d="M525.109 45.6807V114.904H509.101V109.604H519.052V50.9806H509.101V45.6807H525.109Z" fill="#FFD426"/>
<path d="M368.231 44.4111V113.635H384.239V108.335H374.288V49.7111H384.239V44.4111H368.231Z" fill="#FFD426"/>
</svg>
