<svg width="167" height="167" viewBox="0 0 167 167" fill="none" xmlns="http://www.w3.org/2000/svg">
<path d="M83.4999 14.9108L140.161 50.6965V116.304L83.4999 152.089L26.8392 120.754V50.6965L83.4999 14.9108Z" stroke="#C6CCDA" stroke-width="0.75"/>
<path d="M83.5 37.254L117.588 62.7171L116.304 102.769L83.5 128.232L50.6964 107.357L50.1 64.231L83.5 37.254Z" stroke="#C6CCDA" stroke-width="0.75"/>
<path d="M83.4999 62.625L98.4107 71.5714V95.4286L83.4999 104.375L68.5892 95.4286V71.5714L83.4999 62.625Z" stroke="#C6CCDA" stroke-width="0.75"/>
<path d="M83.5 8.94641V158.054" stroke="#C6CCDA" stroke-width="0.75"/>
<path d="M14.9106 44.8699L146.446 120.754" stroke="#C6CCDA" stroke-width="0.75"/>
<path d="M151.585 46.2461L23.123 123.323" stroke="#C6CCDA" stroke-width="0.75"/>
<path d="M84.8352 35.9692L50.6964 63.6191V107.357L84.8352 131.031L140.161 115.31V52.6846L84.8352 35.9692Z" fill="#00657C" fill-opacity="0.15" stroke="#00657C" stroke-width="3.5"/>
<path d="M83.0408 30.9558C86.2656 30.9558 88.8804 33.5699 88.8806 36.7947C88.8806 40.0196 86.2657 42.6345 83.0408 42.6345C79.816 42.6343 77.2019 40.0195 77.2019 36.7947C77.2021 33.5701 79.8162 30.956 83.0408 30.9558Z" fill="#FED12E" stroke="#00657C" stroke-width="0.25"/>
<path d="M139.564 48.9404C142.789 48.9404 145.403 51.5545 145.404 54.7793C145.404 58.0042 142.789 60.6191 139.564 60.6191C136.339 60.6189 133.725 58.0041 133.725 54.7793C133.725 51.5547 136.339 48.9407 139.564 48.9404Z" fill="#FED12E" stroke="#00657C" stroke-width="0.25"/>
<path d="M138.983 108.614C142.207 108.614 144.822 111.228 144.823 114.453C144.823 117.678 142.208 120.292 138.983 120.292C135.758 120.292 133.144 117.677 133.144 114.453C133.144 111.228 135.758 108.614 138.983 108.614Z" fill="#FED12E" stroke="#00657C" stroke-width="0.25"/>
<path d="M85.61 123.448C88.8348 123.448 91.4496 126.062 91.4498 129.287C91.4498 132.512 88.8349 135.127 85.61 135.127C82.3852 135.127 79.7711 132.512 79.7711 129.287C79.7713 126.062 82.3854 123.448 85.61 123.448Z" fill="#FED12E" stroke="#00657C" stroke-width="0.25"/>
<path d="M50.2219 101.151C53.4467 101.151 56.0615 103.765 56.0618 106.99C56.0618 110.215 53.4469 112.83 50.2219 112.83C46.9972 112.829 44.3831 110.215 44.3831 106.99C44.3833 103.765 46.9973 101.151 50.2219 101.151Z" fill="#FED12E" stroke="#00657C" stroke-width="0.25"/>
<path d="M52.21 58.0549C55.4348 58.0549 58.0496 60.669 58.0498 63.8938C58.0498 67.1187 55.4349 69.7336 52.21 69.7336C48.9852 69.7334 46.3711 67.1186 46.3711 63.8938C46.3713 60.6692 48.9853 58.0552 52.21 58.0549Z" fill="#FED12E" stroke="#00657C" stroke-width="0.25"/>
<path d="M83.5 158.054C124.675 158.054 158.054 124.675 158.054 83.5C158.054 42.3252 124.675 8.94641 83.5 8.94641C42.3252 8.94641 8.94641 42.3252 8.94641 83.5C8.94641 124.675 42.3252 158.054 83.5 158.054Z" stroke="#FF5740" stroke-width="6"/>
</svg>
