<svg width="453" height="169" viewBox="0 0 453 169" fill="none" xmlns="http://www.w3.org/2000/svg">
<path d="M33.4125 103.027H45.374V142.084H33.4125V103.027ZM32.4556 90.7312C32.4556 88.8025 33.1201 87.1684 34.4492 85.829C35.8314 84.4361 37.4794 83.7396 39.3932 83.7396C41.3071 83.7396 42.9285 84.4361 44.2576 85.829C45.6398 87.1684 46.3309 88.8025 46.3309 90.7312C46.3309 92.66 45.6398 94.3209 44.2576 95.7138C42.9285 97.0532 41.3071 97.7229 39.3932 97.7229C37.4794 97.7229 35.8314 97.0532 34.4492 95.7138C33.1201 94.3209 32.4556 92.66 32.4556 90.7312ZM7.8946 112.671H0V103.027H7.8946V96.1157C7.8946 93.9726 8.08067 91.9635 8.4528 90.0883C8.82494 88.1596 9.54263 86.4719 10.6059 85.0254C11.6691 83.5788 13.1842 82.4537 15.1513 81.6501C17.1714 80.7929 19.8029 80.3643 23.0458 80.3643C24.2686 80.3643 25.4647 80.4178 26.6343 80.525C27.8039 80.6321 28.9469 80.8197 30.0633 81.0875L29.5051 91.2938C28.814 91.0259 28.176 90.8384 27.5912 90.7312C27.0064 90.5705 26.3419 90.4902 25.5976 90.4902C23.6838 90.4902 22.2484 90.9188 21.2915 91.776C20.3346 92.5796 19.8561 94.2673 19.8561 96.8389V103.027H28.7076V112.671H19.8561V142.084H7.8946V112.671Z" fill="#FF5740"/>
<path d="M53.977 103.027H65.46V108.331H65.6195C65.9916 107.581 66.5232 106.831 67.2144 106.081C67.9055 105.331 68.7295 104.661 69.6864 104.072C70.6433 103.482 71.7332 103 72.9559 102.625C74.1786 102.25 75.5077 102.063 76.9431 102.063C79.9733 102.063 82.4188 102.545 84.2795 103.509C86.1401 104.42 87.5755 105.706 88.5856 107.367C89.6488 109.028 90.3665 110.983 90.7387 113.233C91.1108 115.483 91.2969 117.921 91.2969 120.546V142.084H79.3354V122.957C79.3354 121.832 79.2822 120.68 79.1759 119.502C79.1227 118.269 78.8835 117.144 78.4582 116.126C78.086 115.108 77.4747 114.278 76.6241 113.635C75.8267 112.992 74.6571 112.671 73.1154 112.671C71.5737 112.671 70.3243 112.965 69.3674 113.555C68.4105 114.09 67.6662 114.841 67.1346 115.805C66.6562 116.716 66.3372 117.76 66.1777 118.939C66.0182 120.118 65.9385 121.35 65.9385 122.636V142.084H53.977V103.027Z" fill="#FF5740"/>
<path d="M140.436 142.084H129.432V136.941H129.272C128.794 137.637 128.156 138.36 127.358 139.111C126.614 139.807 125.71 140.45 124.647 141.039C123.637 141.629 122.494 142.111 121.218 142.486C119.995 142.861 118.719 143.048 117.39 143.048C114.52 143.048 111.915 142.566 109.576 141.602C107.236 140.584 105.216 139.191 103.515 137.423C101.867 135.601 100.591 133.458 99.6874 130.994C98.7836 128.529 98.3317 125.824 98.3317 122.877C98.3317 120.145 98.7304 117.546 99.5279 115.082C100.378 112.564 101.548 110.34 103.037 108.411C104.578 106.483 106.439 104.956 108.619 103.831C110.798 102.652 113.27 102.063 116.035 102.063C118.533 102.063 120.846 102.464 122.972 103.268C125.152 104.018 126.933 105.331 128.315 107.206H128.475V81.3286H140.436V142.084ZM129.432 122.556C129.432 119.609 128.581 117.225 126.88 115.403C125.232 113.581 122.893 112.671 119.862 112.671C116.832 112.671 114.466 113.581 112.765 115.403C111.117 117.225 110.293 119.609 110.293 122.556C110.293 125.502 111.117 127.886 112.765 129.708C114.466 131.53 116.832 132.44 119.862 132.44C122.893 132.44 125.232 131.53 126.88 129.708C128.581 127.886 129.432 125.502 129.432 122.556Z" fill="#FF5740"/>
<path d="M186.678 135.333C184.764 137.798 182.345 139.7 179.421 141.039C176.498 142.379 173.467 143.048 170.331 143.048C167.354 143.048 164.536 142.566 161.878 141.602C159.273 140.637 156.987 139.271 155.02 137.503C153.106 135.682 151.591 133.512 150.475 130.994C149.358 128.476 148.8 125.663 148.8 122.556C148.8 119.448 149.358 116.635 150.475 114.117C151.591 111.599 153.106 109.456 155.02 107.688C156.987 105.867 159.273 104.474 161.878 103.509C164.536 102.545 167.354 102.063 170.331 102.063C173.095 102.063 175.594 102.545 177.827 103.509C180.113 104.474 182.026 105.867 183.568 107.688C185.163 109.456 186.386 111.599 187.236 114.117C188.087 116.635 188.512 119.448 188.512 122.556V126.333H160.761C161.24 128.636 162.277 130.485 163.871 131.878C165.466 133.217 167.433 133.887 169.772 133.887C171.74 133.887 173.388 133.458 174.717 132.601C176.099 131.69 177.295 130.538 178.305 129.145L186.678 135.333ZM176.551 118.135C176.604 116.1 175.939 114.358 174.557 112.912C173.175 111.465 171.394 110.742 169.214 110.742C167.885 110.742 166.716 110.956 165.706 111.385C164.695 111.813 163.818 112.376 163.074 113.073C162.383 113.715 161.825 114.492 161.399 115.403C161.027 116.26 160.815 117.171 160.761 118.135H176.551Z" fill="#FF5740"/>
<path d="M195.786 103.027H207.748V109.295H207.907C209.183 106.884 210.698 105.09 212.453 103.911C214.207 102.679 216.413 102.063 219.071 102.063C219.762 102.063 220.454 102.089 221.145 102.143C221.836 102.197 222.474 102.304 223.059 102.464V113.474C222.208 113.206 221.357 113.019 220.507 112.912C219.709 112.751 218.859 112.671 217.955 112.671C215.669 112.671 213.861 112.992 212.532 113.635C211.203 114.278 210.167 115.189 209.422 116.367C208.731 117.493 208.279 118.859 208.067 120.466C207.854 122.073 207.748 123.841 207.748 125.77V142.084H195.786V103.027Z" fill="#FF5740"/>
<path d="M250.189 114.519C248.435 112.322 246.122 111.224 243.252 111.224C242.242 111.224 241.258 111.465 240.301 111.947C239.344 112.43 238.866 113.26 238.866 114.439C238.866 115.403 239.344 116.126 240.301 116.609C241.311 117.037 242.561 117.439 244.049 117.814C245.591 118.135 247.212 118.511 248.913 118.939C250.668 119.314 252.289 119.93 253.778 120.787C255.32 121.645 256.569 122.823 257.526 124.324C258.536 125.77 259.041 127.726 259.041 130.19C259.041 132.708 258.483 134.798 257.366 136.459C256.303 138.066 254.921 139.378 253.22 140.396C251.518 141.361 249.605 142.03 247.478 142.405C245.352 142.834 243.252 143.048 241.178 143.048C238.467 143.048 235.729 142.673 232.965 141.923C230.2 141.12 227.861 139.727 225.947 137.744L233.204 129.628C234.32 131.021 235.543 132.092 236.872 132.842C238.254 133.539 239.849 133.887 241.657 133.887C243.039 133.887 244.288 133.699 245.405 133.324C246.521 132.896 247.079 132.146 247.079 131.074C247.079 130.056 246.574 129.306 245.564 128.824C244.607 128.288 243.358 127.86 241.816 127.538C240.328 127.163 238.706 126.788 236.952 126.413C235.251 125.984 233.629 125.368 232.088 124.565C230.599 123.761 229.35 122.636 228.34 121.189C227.383 119.689 226.904 117.707 226.904 115.242C226.904 112.939 227.356 110.956 228.26 109.295C229.217 107.635 230.44 106.268 231.928 105.197C233.47 104.125 235.224 103.348 237.191 102.866C239.158 102.33 241.152 102.063 243.172 102.063C245.724 102.063 248.302 102.438 250.907 103.188C253.512 103.938 255.718 105.277 257.526 107.206L250.189 114.519Z" fill="#FF5740"/>
<path d="M29.9331 32.3064H22.0385V22.6627H29.9331V15.7514C29.9331 13.6083 30.1191 11.5992 30.4913 9.72408C30.8634 7.79533 31.5811 6.10768 32.6443 4.66112C33.7076 3.21457 35.2227 2.08947 37.1897 1.28583C39.2099 0.428609 41.8414 0 45.0843 0C46.3071 0 47.5032 0.0535755 48.6728 0.160726C49.8423 0.267877 50.9853 0.455393 52.1017 0.723274L51.5435 10.9295C50.8524 10.6617 50.2145 10.4741 49.6297 10.367C49.0449 10.2063 48.3804 10.1259 47.6361 10.1259C45.7223 10.1259 44.2869 10.5545 43.33 11.4117C42.373 12.2154 41.8946 13.903 41.8946 16.4747V22.6627H50.7461V32.3064H41.8946V61.7198H29.9331V32.3064Z" fill="#00657C"/>
<path d="M79.6226 56.8175H79.4631C78.134 58.907 76.3531 60.4071 74.1203 61.3179C71.9406 62.2287 69.6281 62.6841 67.1826 62.6841C65.3751 62.6841 63.6207 62.4162 61.9195 61.8805C60.2715 61.3983 58.8095 60.6482 57.5336 59.6303C56.2577 58.6123 55.2477 57.3533 54.5034 55.8532C53.7591 54.353 53.387 52.6118 53.387 50.6295C53.387 48.3793 53.7857 46.4773 54.5831 44.9236C55.4337 43.3699 56.5501 42.0841 57.9324 41.0661C59.3677 40.0482 60.9892 39.2713 62.7967 38.7356C64.6042 38.1462 66.4649 37.7176 68.3787 37.4497C70.3457 37.1819 72.2862 37.0211 74.2 36.9676C76.167 36.914 77.9745 36.8872 79.6226 36.8872C79.6226 34.7442 78.8517 33.0565 77.31 31.8242C75.8215 30.5384 74.0405 29.8955 71.9672 29.8955C70.0002 29.8955 68.1927 30.3241 66.5446 31.1813C64.9498 31.985 63.5144 33.1101 62.2385 34.5566L55.859 27.9668C58.0918 25.8773 60.6968 24.3236 63.6739 23.3056C66.651 22.2341 69.7344 21.6984 72.9241 21.6984C76.4328 21.6984 79.3036 22.1537 81.5364 23.0645C83.8224 23.9218 85.6299 25.2076 86.959 26.922C88.3412 28.6365 89.2981 30.7527 89.8297 33.2708C90.3613 35.7353 90.6272 38.6016 90.6272 41.8698V61.7198H79.6226V56.8175ZM76.6721 44.6022C75.7683 44.6022 74.6253 44.6557 73.2431 44.7629C71.914 44.8165 70.6116 45.0308 69.3357 45.4058C68.1129 45.7808 67.0497 46.3434 66.1459 47.0935C65.2953 47.8435 64.87 48.8883 64.87 50.2277C64.87 51.6742 65.4814 52.7457 66.7041 53.4422C67.9269 54.1387 69.2028 54.487 70.5318 54.487C71.7014 54.487 72.8178 54.3262 73.881 54.0048C74.9974 53.6833 75.9809 53.2279 76.8315 52.6386C77.6821 52.0493 78.3467 51.2992 78.8251 50.3884C79.3568 49.4776 79.6226 48.4061 79.6226 47.1738V44.6022H76.6721Z" fill="#00657C"/>
<path d="M98.2912 0.964368H110.253V61.7198H98.2912V0.964368Z" fill="#00657C"/>
<path d="M119.006 0.964368H130.967V61.7198H119.006V0.964368Z" fill="#00657C"/>
<path d="M163.883 56.8175H163.723C162.394 58.907 160.613 60.4071 158.38 61.3179C156.201 62.2287 153.888 62.6841 151.443 62.6841C149.635 62.6841 147.881 62.4162 146.18 61.8805C144.532 61.3983 143.07 60.6482 141.794 59.6303C140.518 58.6123 139.508 57.3533 138.764 55.8532C138.019 54.353 137.647 52.6118 137.647 50.6295C137.647 48.3793 138.046 46.4773 138.843 44.9236C139.694 43.3699 140.81 42.0841 142.192 41.0661C143.628 40.0482 145.249 39.2713 147.057 38.7356C148.864 38.1462 150.725 37.7176 152.639 37.4497C154.606 37.1819 156.546 37.0211 158.46 36.9676C160.427 36.914 162.235 36.8872 163.883 36.8872C163.883 34.7442 163.112 33.0565 161.57 31.8242C160.082 30.5384 158.301 29.8955 156.227 29.8955C154.26 29.8955 152.453 30.3241 150.805 31.1813C149.21 31.985 147.775 33.1101 146.499 34.5566L140.119 27.9668C142.352 25.8773 144.957 24.3236 147.934 23.3056C150.911 22.2341 153.995 21.6984 157.184 21.6984C160.693 21.6984 163.564 22.1537 165.797 23.0645C168.083 23.9218 169.89 25.2076 171.219 26.922C172.601 28.6365 173.558 30.7527 174.09 33.2708C174.621 35.7353 174.887 38.6016 174.887 41.8698V61.7198H163.883V56.8175ZM160.932 44.6022C160.028 44.6022 158.885 44.6557 157.503 44.7629C156.174 44.8165 154.872 45.0308 153.596 45.4058C152.373 45.7808 151.31 46.3434 150.406 47.0935C149.555 47.8435 149.13 48.8883 149.13 50.2277C149.13 51.6742 149.742 52.7457 150.964 53.4422C152.187 54.1387 153.463 54.487 154.792 54.487C155.962 54.487 157.078 54.3262 158.141 54.0048C159.258 53.6833 160.241 53.2279 161.092 52.6386C161.942 52.0493 162.607 51.2992 163.085 50.3884C163.617 49.4776 163.883 48.4061 163.883 47.1738V44.6022H160.932Z" fill="#00657C"/>
<path d="M208.627 35.2799C208.043 34.4227 207.219 33.7262 206.155 33.1904C205.092 32.6011 203.949 32.3064 202.726 32.3064C199.696 32.3064 197.33 33.2172 195.629 35.0388C193.981 36.8604 193.157 39.2446 193.157 42.1912C193.157 45.1379 193.981 47.5221 195.629 49.3437C197.33 51.1652 199.696 52.076 202.726 52.076C204.056 52.076 205.199 51.7814 206.155 51.192C207.112 50.6027 207.936 49.9062 208.627 49.1026L216.522 57.4605C214.661 59.3892 212.455 60.7554 209.903 61.559C207.405 62.3091 205.012 62.6841 202.726 62.6841C199.749 62.6841 196.932 62.2019 194.274 61.2376C191.669 60.2732 189.383 58.907 187.416 57.139C185.502 55.3174 183.987 53.1476 182.87 50.6295C181.754 48.1114 181.196 45.2987 181.196 42.1912C181.196 39.0838 181.754 36.2711 182.87 33.753C183.987 31.2349 185.502 29.0919 187.416 27.3238C189.383 25.5023 191.669 24.1093 194.274 23.1449C196.932 22.1805 199.749 21.6984 202.726 21.6984C205.012 21.6984 207.405 22.1002 209.903 22.9038C212.455 23.6539 214.661 24.9933 216.522 26.922L208.627 35.2799Z" fill="#00657C"/>
<path d="M243.19 68.0685C242.393 70.158 241.622 72.0064 240.877 73.6137C240.133 75.221 239.176 76.5604 238.007 77.6319C236.89 78.757 235.455 79.5874 233.701 80.1232C231.946 80.7125 229.634 81.0072 226.763 81.0072C223.679 81.0072 220.702 80.525 217.832 79.5606L219.426 69.6758C221.234 70.4795 223.095 70.8813 225.009 70.8813C226.338 70.8813 227.427 70.7206 228.278 70.3991C229.129 70.1312 229.82 69.7026 230.351 69.1133C230.936 68.5775 231.415 67.9078 231.787 67.1042C232.159 66.3005 232.558 65.3629 232.983 64.2914L233.86 62.0412L216.875 22.6627H229.793L239.761 48.4597H239.921L248.453 22.6627H260.734L243.19 68.0685Z" fill="#00657C"/>
<path fill-rule="evenodd" clip-rule="evenodd" d="M402.752 8.32718C413.855 -2.77569 431.857 -2.77577 442.96 8.32718L443.875 9.24222C454.978 20.3454 454.978 38.3472 443.875 49.4503L419.838 73.4877C410.261 83.0638 395.554 84.3797 384.567 77.4376L377.595 84.2786L378.742 74.6278L368.016 75.8767L371.862 79.6847L367.789 75.7228L375.101 68.1568C367.782 57.117 368.986 42.0933 378.714 32.3651L402.752 8.32718ZM433.782 17.5054C427.748 11.4712 417.964 11.4711 411.93 17.5054L387.893 41.5427C383.339 46.0967 382.222 52.7859 384.542 58.3877L396 46.532C398.741 43.6963 403.302 43.6486 406.103 46.4257L406.355 46.6871C408.864 49.4412 408.768 53.692 406.078 56.3325L394.326 67.8616C399.819 69.9092 406.243 68.7256 410.659 64.3095L434.697 40.2721C440.731 34.2378 440.731 24.4541 434.697 18.4198L433.782 17.5054Z" fill="#00657C"/>
<path fill-rule="evenodd" clip-rule="evenodd" d="M357.936 93.7191L368.661 92.4703L364.815 88.6623L368.888 92.6242L361.576 100.19C368.895 111.229 367.69 126.253 357.962 135.981L333.925 160.019C322.822 171.122 304.82 171.122 293.717 160.019L292.802 159.104C281.699 148.001 281.699 129.999 292.802 118.896L316.84 94.8581C326.416 85.2822 341.123 83.9663 352.11 90.9082L359.082 84.0684L357.936 93.7191ZM342.35 100.484C336.857 98.4367 330.433 99.6202 326.017 104.036L301.98 128.074C295.946 134.108 295.946 143.892 301.98 149.926L302.894 150.84C308.929 156.875 318.712 156.875 324.747 150.84L348.784 126.803C353.338 122.249 354.455 115.56 352.135 109.959L340.677 121.815C337.937 124.651 333.375 124.698 330.574 121.921L330.322 121.66C327.813 118.906 327.909 114.655 330.6 112.015L342.35 100.484Z" fill="#00657C"/>
<path d="M379.101 105.549C380.923 105.094 382.769 106.201 383.224 108.023L385.283 116.26C385.739 118.082 384.631 119.928 382.81 120.383C380.989 120.838 379.143 119.731 378.687 117.909L376.628 109.672C376.173 107.85 377.28 106.005 379.101 105.549Z" fill="#FFD426"/>
<path d="M387.753 96.9944C388.125 95.1543 389.918 93.9636 391.758 94.335L400.082 96.0166C401.922 96.3883 403.113 98.1812 402.741 100.021C402.369 101.862 400.576 103.053 398.736 102.681L390.412 101C388.572 100.628 387.382 98.8346 387.753 96.9944Z" fill="#FFD426"/>
<path d="M379.512 89.8437L373.698 95.6575L372.999 89.1453L379.512 89.8437Z" fill="#FFD426"/>
<path d="M363.591 79.7342L357.078 79.0352L362.892 73.2214L363.591 79.7342Z" fill="#FFD426"/>
<path d="M333.849 68.8563C334.221 67.0162 336.014 65.8252 337.855 66.1969L346.178 67.8779C348.018 68.2496 349.208 70.0431 348.837 71.8833C348.465 73.7235 346.672 74.9137 344.832 74.5421L336.509 72.8611C334.668 72.4894 333.478 70.6965 333.849 68.8563Z" fill="#FFD426"/>
<path d="M353.78 48.4948C355.602 48.0396 357.447 49.1471 357.903 50.9683L359.962 59.2061C360.418 61.0274 359.31 62.8732 357.489 63.3286C355.667 63.7839 353.822 62.6765 353.366 60.8551L351.307 52.6173C350.852 50.796 351.959 48.9502 353.78 48.4948Z" fill="#FFD426"/>
</svg>
