<svg width="167" height="167" viewBox="0 0 167 167" fill="none" xmlns="http://www.w3.org/2000/svg">
<path d="M83.6607 15L140.321 50.7857V116.393L83.6607 152.179L27 120.843V50.7857L83.6607 15Z" stroke="#C6CCDA" stroke-opacity="0.39" stroke-width="0.75"/>
<path d="M83.5 37.254L117.588 62.7171L116.304 102.769L83.5 128.232L50.6964 107.357L50.1 64.231L83.5 37.254Z" stroke="#C6CCDA" stroke-opacity="0.39" stroke-width="0.75"/>
<path d="M83.5 62.625L98.4107 71.5714V95.4286L83.5 104.375L68.5893 95.4286V71.5714L83.5 62.625Z" stroke="#C6CCDA" stroke-opacity="0.39" stroke-width="0.75"/>
<path d="M83.5 8.94641V158.054" stroke="#C6CCDA" stroke-opacity="0.39" stroke-width="0.75"/>
<path d="M14.9107 44.8699L146.446 120.754" stroke="#C6CCDA" stroke-opacity="0.39" stroke-width="0.75"/>
<path d="M151.585 46.2461L23.123 123.323" stroke="#C6CCDA" stroke-opacity="0.39" stroke-width="0.75"/>
<path d="M84.8352 35.9692L50.6964 63.6191V107.357L84.8352 131.031L140.161 115.31V52.6846L84.8352 35.9692Z" fill="#00657C" fill-opacity="0.15" stroke="#59B0C4" stroke-width="3.5"/>
<path d="M82.7827 31.125C86.0075 31.125 88.6223 33.7391 88.6226 36.9639C88.6226 40.1888 86.0077 42.8037 82.7827 42.8037C79.558 42.8035 76.9438 40.1887 76.9438 36.9639C76.9441 33.7393 79.5581 31.1252 82.7827 31.125Z" fill="#FED12E" stroke="#FED12E" stroke-width="0.25"/>
<path d="M139.306 49.1096C142.531 49.1096 145.145 51.7237 145.146 54.9485C145.146 58.1734 142.531 60.7883 139.306 60.7883C136.081 60.7881 133.467 58.1733 133.467 54.9485C133.467 51.7239 136.081 49.1098 139.306 49.1096Z" fill="#FED12E" stroke="#FED12E" stroke-width="0.25"/>
<path d="M138.725 108.783C141.949 108.783 144.564 111.397 144.564 114.622C144.564 117.847 141.95 120.462 138.725 120.462C135.5 120.461 132.886 117.847 132.886 114.622C132.886 111.397 135.5 108.783 138.725 108.783Z" fill="#FED12E" stroke="#FED12E" stroke-width="0.25"/>
<path d="M85.3519 123.617C88.5767 123.617 91.1915 126.231 91.1918 129.456C91.1918 132.681 88.5769 135.296 85.3519 135.296C82.1272 135.296 79.5131 132.681 79.5131 129.456C79.5133 126.232 82.1273 123.618 85.3519 123.617Z" fill="#FED12E" stroke="#FED12E" stroke-width="0.25"/>
<path d="M49.9639 101.32C53.1887 101.32 55.8035 103.934 55.8037 107.159C55.8037 110.384 53.1888 112.999 49.9639 112.999C46.7391 112.999 44.125 110.384 44.125 107.159C44.1252 103.934 46.7393 101.32 49.9639 101.32Z" fill="#FED12E" stroke="#FED12E" stroke-width="0.25"/>
<path d="M51.9519 58.2242C55.1767 58.2242 57.7915 60.8384 57.7917 64.0631C57.7917 67.2881 55.1769 69.903 51.9519 69.903C48.7271 69.9027 46.113 67.2879 46.113 64.0631C46.1133 60.8385 48.7273 58.2245 51.9519 58.2242Z" fill="#FED12E" stroke="#FED12E" stroke-width="0.25"/>
<path d="M83.5 158.054C124.675 158.054 158.054 124.675 158.054 83.5C158.054 42.3252 124.675 8.94641 83.5 8.94641C42.3252 8.94641 8.94641 42.3252 8.94641 83.5C8.94641 124.675 42.3252 158.054 83.5 158.054Z" stroke="#FF5740" stroke-width="6"/>
</svg>
