<svg width="824" height="184" viewBox="0 0 824 184" fill="none" xmlns="http://www.w3.org/2000/svg">
<path d="M28.89 137.488C28.2742 136.598 27.4063 135.875 26.2866 135.319C25.1668 134.708 23.9631 134.402 22.6753 134.402C19.484 134.402 16.9925 135.347 15.2009 137.237C13.4652 139.128 12.5974 141.601 12.5974 144.659C12.5974 147.717 13.4652 150.191 15.2009 152.081C16.9925 153.971 19.484 154.916 22.6753 154.916C24.075 154.916 25.2788 154.61 26.2866 153.999C27.2944 153.387 28.1622 152.665 28.89 151.831L37.2043 160.503C35.2447 162.505 32.9212 163.922 30.2338 164.756C27.6023 165.534 25.0828 165.923 22.6753 165.923C19.54 165.923 16.5726 165.423 13.7732 164.422C11.0297 163.422 8.62222 162.004 6.55065 160.17C4.53506 158.279 2.93939 156.028 1.76364 153.415C0.587879 150.802 0 147.884 0 144.659C0 141.435 0.587879 138.516 1.76364 135.903C2.93939 133.29 4.53506 131.067 6.55065 129.232C8.62222 127.342 11.0297 125.896 13.7732 124.896C16.5726 123.895 19.54 123.395 22.6753 123.395C25.0828 123.395 27.6023 123.812 30.2338 124.646C32.9212 125.424 35.2447 126.814 37.2043 128.815L28.89 137.488Z" fill="#FF5740"/>
<path d="M54.3722 101.88V129.899H54.5402C54.8201 129.121 55.296 128.343 55.9679 127.564C56.6397 126.786 57.4516 126.091 58.4034 125.479C59.3552 124.868 60.475 124.368 61.7627 123.978C63.0504 123.589 64.4501 123.395 65.9618 123.395C69.1532 123.395 71.7286 123.895 73.6882 124.896C75.6478 125.841 77.1595 127.175 78.2233 128.898C79.3431 130.622 80.0989 132.651 80.4908 134.986C80.8827 137.321 81.0787 139.85 81.0787 142.574V164.923H68.4813V145.076C68.4813 143.909 68.4253 142.713 68.3133 141.49C68.2573 140.212 68.0054 139.044 67.5575 137.988C67.1656 136.932 66.5217 136.07 65.6259 135.403C64.7861 134.736 63.5543 134.402 61.9307 134.402C60.307 134.402 58.9913 134.708 57.9835 135.319C56.9757 135.875 56.1918 136.654 55.632 137.654C55.1281 138.599 54.7921 139.684 54.6242 140.907C54.4562 142.13 54.3722 143.408 54.3722 144.743V164.923H41.7748V101.88H54.3722Z" fill="#FF5740"/>
<path d="M115.614 159.836H115.446C114.046 162.004 112.171 163.561 109.819 164.506C107.524 165.451 105.088 165.923 102.513 165.923C100.609 165.923 98.7614 165.646 96.9698 165.09C95.2342 164.589 93.6945 163.811 92.3507 162.755C91.007 161.698 89.9432 160.392 89.1594 158.835C88.3756 157.279 87.9836 155.472 87.9836 153.415C87.9836 151.08 88.4036 149.107 89.2434 147.494C90.1392 145.882 91.315 144.548 92.7707 143.492C94.2823 142.435 95.99 141.629 97.8936 141.073C99.7972 140.462 101.757 140.017 103.772 139.739C105.844 139.461 107.888 139.294 109.903 139.239C111.975 139.183 113.878 139.155 115.614 139.155C115.614 136.932 114.802 135.18 113.178 133.902C111.611 132.568 109.735 131.9 107.552 131.9C105.48 131.9 103.576 132.345 101.841 133.235C100.161 134.069 98.6494 135.236 97.3057 136.737L90.5871 129.899C92.9386 127.731 95.6821 126.119 98.8174 125.063C101.953 123.951 105.2 123.395 108.559 123.395C112.255 123.395 115.278 123.867 117.63 124.812C120.037 125.702 121.941 127.036 123.34 128.815C124.796 130.594 125.804 132.79 126.364 135.403C126.924 137.96 127.204 140.934 127.204 144.326V164.923H115.614V159.836ZM112.507 147.161C111.555 147.161 110.351 147.216 108.895 147.328C107.496 147.383 106.124 147.606 104.78 147.995C103.492 148.384 102.373 148.968 101.421 149.746C100.525 150.524 100.077 151.608 100.077 152.998C100.077 154.499 100.721 155.611 102.009 156.334C103.296 157.056 104.64 157.418 106.04 157.418C107.272 157.418 108.447 157.251 109.567 156.917C110.743 156.584 111.779 156.111 112.675 155.5C113.57 154.888 114.27 154.11 114.774 153.165C115.334 152.22 115.614 151.108 115.614 149.829V147.161H112.507Z" fill="#FF5740"/>
<path d="M135.107 124.395H147.201V129.899H147.369C147.76 129.121 148.32 128.343 149.048 127.564C149.776 126.786 150.644 126.091 151.652 125.479C152.659 124.868 153.807 124.368 155.095 123.978C156.383 123.589 157.782 123.395 159.294 123.395C162.15 123.395 164.669 123.978 166.853 125.146C169.092 126.313 170.772 128.148 171.892 130.65C173.347 128.037 175.111 126.174 177.182 125.063C179.254 123.951 181.801 123.395 184.825 123.395C187.568 123.395 189.864 123.867 191.711 124.812C193.615 125.702 195.099 126.953 196.162 128.565C197.282 130.122 198.066 131.984 198.514 134.152C199.018 136.265 199.27 138.544 199.27 140.99V164.923H186.672V141.324C186.672 139.433 186.253 137.821 185.413 136.487C184.629 135.097 183.201 134.402 181.13 134.402C179.674 134.402 178.442 134.652 177.434 135.153C176.483 135.597 175.699 136.237 175.083 137.071C174.523 137.905 174.103 138.877 173.823 139.989C173.599 141.101 173.487 142.269 173.487 143.492V164.923H160.89V143.492C160.89 142.769 160.862 141.879 160.806 140.823C160.75 139.767 160.554 138.766 160.218 137.821C159.882 136.876 159.322 136.07 158.538 135.403C157.81 134.736 156.719 134.402 155.263 134.402C153.639 134.402 152.324 134.708 151.316 135.319C150.308 135.875 149.524 136.654 148.964 137.654C148.46 138.599 148.124 139.684 147.956 140.907C147.788 142.13 147.704 143.408 147.704 144.743V164.923H135.107V124.395Z" fill="#FF5740"/>
<path d="M209.358 124.395H220.947V129.732H221.115C221.619 129.01 222.263 128.287 223.047 127.564C223.887 126.786 224.838 126.091 225.902 125.479C227.022 124.868 228.226 124.368 229.513 123.978C230.801 123.589 232.173 123.395 233.629 123.395C236.652 123.395 239.395 123.923 241.859 124.979C244.322 125.98 246.422 127.425 248.158 129.315C249.949 131.15 251.321 133.346 252.273 135.903C253.225 138.46 253.7 141.268 253.7 144.326C253.7 147.161 253.253 149.885 252.357 152.498C251.517 155.055 250.285 157.334 248.661 159.336C247.094 161.337 245.162 162.949 242.867 164.172C240.571 165.34 237.968 165.923 235.056 165.923C232.425 165.923 229.961 165.534 227.666 164.756C225.426 163.922 223.579 162.532 222.123 160.587H221.955V183.936H209.358V124.395ZM220.947 144.659C220.947 147.717 221.815 150.191 223.551 152.081C225.342 153.971 227.834 154.916 231.025 154.916C234.216 154.916 236.68 153.971 238.416 152.081C240.207 150.191 241.103 147.717 241.103 144.659C241.103 141.601 240.207 139.128 238.416 137.237C236.68 135.347 234.216 134.402 231.025 134.402C227.834 134.402 225.342 135.347 223.551 137.237C221.815 139.128 220.947 141.601 220.947 144.659Z" fill="#FF5740"/>
<path d="M261.249 124.395H273.846V164.923H261.249V124.395ZM260.241 111.637C260.241 109.635 260.941 107.94 262.341 106.55C263.797 105.105 265.532 104.382 267.548 104.382C269.563 104.382 271.271 105.105 272.671 106.55C274.126 107.94 274.854 109.635 274.854 111.637C274.854 113.638 274.126 115.362 272.671 116.807C271.271 118.197 269.563 118.892 267.548 118.892C265.532 118.892 263.797 118.197 262.341 116.807C260.941 115.362 260.241 113.638 260.241 111.637Z" fill="#FF5740"/>
<path d="M281.385 144.659C281.385 141.435 281.973 138.516 283.149 135.903C284.325 133.29 285.92 131.067 287.936 129.232C290.007 127.342 292.415 125.896 295.158 124.896C297.958 123.895 300.925 123.395 304.061 123.395C307.196 123.395 310.135 123.895 312.879 124.896C315.678 125.896 318.086 127.342 320.101 129.232C322.173 131.067 323.796 133.29 324.972 135.903C326.148 138.516 326.736 141.435 326.736 144.659C326.736 147.884 326.148 150.802 324.972 153.415C323.796 156.028 322.173 158.279 320.101 160.17C318.086 162.004 315.678 163.422 312.879 164.422C310.135 165.423 307.196 165.923 304.061 165.923C300.925 165.923 297.958 165.423 295.158 164.422C292.415 163.422 290.007 162.004 287.936 160.17C285.92 158.279 284.325 156.028 283.149 153.415C281.973 150.802 281.385 147.884 281.385 144.659ZM293.983 144.659C293.983 147.717 294.85 150.191 296.586 152.081C298.378 153.971 300.869 154.916 304.061 154.916C307.252 154.916 309.715 153.971 311.451 152.081C313.243 150.191 314.138 147.717 314.138 144.659C314.138 141.601 313.243 139.128 311.451 137.237C309.715 135.347 307.252 134.402 304.061 134.402C300.869 134.402 298.378 135.347 296.586 137.237C294.85 139.128 293.983 141.601 293.983 144.659Z" fill="#FF5740"/>
<path d="M334.156 124.395H346.249V129.899H346.417C346.809 129.121 347.369 128.343 348.097 127.564C348.825 126.786 349.693 126.091 350.7 125.479C351.708 124.868 352.856 124.368 354.144 123.978C355.431 123.589 356.831 123.395 358.343 123.395C361.534 123.395 364.11 123.895 366.069 124.896C368.029 125.841 369.541 127.175 370.604 128.898C371.724 130.622 372.48 132.651 372.872 134.986C373.264 137.321 373.46 139.85 373.46 142.574V164.923H360.862V145.076C360.862 143.909 360.806 142.713 360.694 141.49C360.638 140.212 360.386 139.044 359.939 137.988C359.547 136.932 358.903 136.07 358.007 135.403C357.167 134.736 355.935 134.402 354.312 134.402C352.688 134.402 351.372 134.708 350.365 135.319C349.357 135.875 348.573 136.654 348.013 137.654C347.509 138.599 347.173 139.684 347.005 140.907C346.837 142.13 346.753 143.408 346.753 144.743V164.923H334.156V124.395Z" fill="#FF5740"/>
<path d="M405.476 136.32C403.628 134.041 401.192 132.901 398.169 132.901C397.105 132.901 396.069 133.151 395.062 133.652C394.054 134.152 393.55 135.014 393.55 136.237C393.55 137.237 394.054 137.988 395.062 138.488C396.125 138.933 397.441 139.35 399.009 139.739C400.633 140.073 402.34 140.462 404.132 140.907C405.979 141.296 407.687 141.935 409.255 142.825C410.878 143.714 412.194 144.937 413.202 146.494C414.266 147.995 414.798 150.024 414.798 152.581C414.798 155.194 414.21 157.362 413.034 159.086C411.914 160.753 410.458 162.115 408.667 163.172C406.875 164.172 404.86 164.867 402.62 165.256C400.381 165.701 398.169 165.923 395.985 165.923C393.13 165.923 390.247 165.534 387.335 164.756C384.424 163.922 381.96 162.477 379.945 160.42L387.587 151.997C388.763 153.443 390.051 154.555 391.45 155.333C392.906 156.056 394.586 156.417 396.489 156.417C397.945 156.417 399.261 156.222 400.437 155.833C401.612 155.389 402.2 154.61 402.2 153.498C402.2 152.442 401.668 151.664 400.604 151.164C399.597 150.608 398.281 150.163 396.657 149.829C395.09 149.44 393.382 149.051 391.534 148.662C389.743 148.217 388.035 147.578 386.411 146.744C384.844 145.91 383.528 144.743 382.464 143.241C381.456 141.685 380.953 139.628 380.953 137.071C380.953 134.68 381.428 132.623 382.38 130.9C383.388 129.176 384.676 127.759 386.243 126.647C387.867 125.535 389.715 124.729 391.786 124.229C393.858 123.673 395.957 123.395 398.085 123.395C400.772 123.395 403.488 123.784 406.231 124.562C408.975 125.341 411.298 126.73 413.202 128.732L405.476 136.32Z" fill="#FF5740"/>
<path d="M433.852 101.88V129.899H434.02C434.3 129.121 434.776 128.343 435.448 127.564C436.12 126.786 436.932 126.091 437.884 125.479C438.835 124.868 439.955 124.368 441.243 123.978C442.531 123.589 443.93 123.395 445.442 123.395C448.633 123.395 451.209 123.895 453.168 124.896C455.128 125.841 456.64 127.175 457.704 128.898C458.823 130.622 459.579 132.651 459.971 134.986C460.363 137.321 460.559 139.85 460.559 142.574V164.923H447.962V145.076C447.962 143.909 447.906 142.713 447.794 141.49C447.738 140.212 447.486 139.044 447.038 137.988C446.646 136.932 446.002 136.07 445.106 135.403C444.266 134.736 443.035 134.402 441.411 134.402C439.787 134.402 438.472 134.708 437.464 135.319C436.456 135.875 435.672 136.654 435.112 137.654C434.608 138.599 434.272 139.684 434.104 140.907C433.936 142.13 433.852 143.408 433.852 144.743V164.923H421.255V101.88H433.852Z" fill="#FF5740"/>
<path d="M469.647 124.395H482.245V164.923H469.647V124.395ZM468.64 111.637C468.64 109.635 469.339 107.94 470.739 106.55C472.195 105.105 473.931 104.382 475.946 104.382C477.962 104.382 479.669 105.105 481.069 106.55C482.525 107.94 483.253 109.635 483.253 111.637C483.253 113.638 482.525 115.362 481.069 116.807C479.669 118.197 477.962 118.892 475.946 118.892C473.931 118.892 472.195 118.197 470.739 116.807C469.339 115.362 468.64 113.638 468.64 111.637Z" fill="#FF5740"/>
<path d="M492.471 124.395H504.061V129.732H504.229C504.732 129.01 505.376 128.287 506.16 127.564C507 126.786 507.952 126.091 509.016 125.479C510.135 124.868 511.339 124.368 512.627 123.978C513.915 123.589 515.286 123.395 516.742 123.395C519.765 123.395 522.509 123.923 524.972 124.979C527.436 125.98 529.535 127.425 531.271 129.315C533.063 131.15 534.434 133.346 535.386 135.903C536.338 138.46 536.814 141.268 536.814 144.326C536.814 147.161 536.366 149.885 535.47 152.498C534.63 155.055 533.399 157.334 531.775 159.336C530.207 161.337 528.276 162.949 525.98 164.172C523.685 165.34 521.081 165.923 518.17 165.923C515.538 165.923 513.075 165.534 510.779 164.756C508.54 163.922 506.692 162.532 505.236 160.587H505.068V183.936H492.471V124.395ZM504.061 144.659C504.061 147.717 504.928 150.191 506.664 152.081C508.456 153.971 510.947 154.916 514.139 154.916C517.33 154.916 519.793 153.971 521.529 152.081C523.321 150.191 524.216 147.717 524.216 144.659C524.216 141.601 523.321 139.128 521.529 137.237C519.793 135.347 517.33 134.402 514.139 134.402C510.947 134.402 508.456 135.347 506.664 137.237C504.928 139.128 504.061 141.601 504.061 144.659Z" fill="#FF5740"/>
<path d="M161.343 54.0979C160.727 53.2084 159.859 52.4857 158.74 51.9298C157.62 51.3182 156.416 51.0125 155.128 51.0125C151.937 51.0125 149.446 51.9576 147.654 53.8477C145.918 55.7379 145.051 58.2118 145.051 61.2694C145.051 64.327 145.918 66.8009 147.654 68.6911C149.446 70.5813 151.937 71.5263 155.128 71.5263C156.528 71.5263 157.732 71.2206 158.74 70.6091C159.747 69.9975 160.615 69.2748 161.343 68.4409L169.657 77.1135C167.698 79.1148 165.374 80.5324 162.687 81.3663C160.055 82.1446 157.536 82.5338 155.128 82.5338C151.993 82.5338 149.026 82.0335 146.226 81.0328C143.483 80.0321 141.075 78.6145 139.004 76.7799C136.988 74.8897 135.393 72.6382 134.217 70.0253C133.041 67.4125 132.453 64.4938 132.453 61.2694C132.453 58.045 133.041 55.1264 134.217 52.5135C135.393 49.9006 136.988 47.6769 139.004 45.8423C141.075 43.9522 143.483 42.5067 146.226 41.5061C149.026 40.5054 151.993 40.005 155.128 40.005C157.536 40.005 160.055 40.422 162.687 41.2559C165.374 42.0342 167.698 43.424 169.657 45.4254L161.343 54.0979Z" fill="#00657C"/>
<path d="M174.396 41.0057H186.993V81.5331H174.396V41.0057ZM173.388 28.2471C173.388 26.2457 174.088 24.5501 175.488 23.1603C176.943 21.7149 178.679 20.9922 180.695 20.9922C182.71 20.9922 184.418 21.7149 185.818 23.1603C187.273 24.5501 188.001 26.2457 188.001 28.2471C188.001 30.2484 187.273 31.9718 185.818 33.4173C184.418 34.8071 182.71 35.502 180.695 35.502C178.679 35.502 176.943 34.8071 175.488 33.4173C174.088 31.9718 173.388 30.2484 173.388 28.2471Z" fill="#00657C"/>
<path d="M191.761 41.0057H205.366L215.696 68.5243H215.864L225.438 41.0057H238.119L221.994 81.5331H208.641L191.761 41.0057Z" fill="#00657C"/>
<path d="M242.878 41.0057H255.475V81.5331H242.878V41.0057ZM241.87 28.2471C241.87 26.2457 242.57 24.5501 243.97 23.1603C245.425 21.7149 247.161 20.9922 249.177 20.9922C251.192 20.9922 252.9 21.7149 254.299 23.1603C255.755 24.5501 256.483 26.2457 256.483 28.2471C256.483 30.2484 255.755 31.9718 254.299 33.4173C252.9 34.8071 251.192 35.502 249.177 35.502C247.161 35.502 245.425 34.8071 243.97 33.4173C242.57 31.9718 241.87 30.2484 241.87 28.2471Z" fill="#00657C"/>
<path d="M292.156 54.0979C291.54 53.2084 290.672 52.4857 289.553 51.9298C288.433 51.3182 287.229 51.0125 285.941 51.0125C282.75 51.0125 280.258 51.9576 278.467 53.8477C276.731 55.7379 275.863 58.2118 275.863 61.2694C275.863 64.327 276.731 66.8009 278.467 68.6911C280.258 70.5813 282.75 71.5263 285.941 71.5263C287.341 71.5263 288.545 71.2206 289.553 70.6091C290.56 69.9975 291.428 69.2748 292.156 68.4409L300.47 77.1135C298.511 79.1148 296.187 80.5324 293.5 81.3663C290.868 82.1446 288.349 82.5338 285.941 82.5338C282.806 82.5338 279.839 82.0335 277.039 81.0328C274.296 80.0321 271.888 78.6145 269.817 76.7799C267.801 74.8897 266.205 72.6382 265.03 70.0253C263.854 67.4125 263.266 64.4938 263.266 61.2694C263.266 58.045 263.854 55.1264 265.03 52.5135C266.205 49.9006 267.801 47.6769 269.817 45.8423C271.888 43.9522 274.296 42.5067 277.039 41.5061C279.839 40.5054 282.806 40.005 285.941 40.005C288.349 40.005 290.868 40.422 293.5 41.2559C296.187 42.0342 298.511 43.424 300.47 45.4254L292.156 54.0979Z" fill="#00657C"/>
<path d="M357.689 51.0125H346.604V64.5216C346.604 65.6335 346.66 66.6619 346.772 67.607C346.884 68.4965 347.136 69.2748 347.527 69.9419C347.919 70.6091 348.507 71.1372 349.291 71.5263C350.131 71.8599 351.223 72.0267 352.566 72.0267C353.238 72.0267 354.106 71.9711 355.17 71.8599C356.29 71.6931 357.129 71.3596 357.689 70.8592V81.2829C356.29 81.7833 354.834 82.1168 353.322 82.2836C351.811 82.4504 350.327 82.5338 348.871 82.5338C346.744 82.5338 344.784 82.3114 342.992 81.8667C341.201 81.4219 339.633 80.727 338.289 79.7819C336.946 78.7813 335.882 77.5026 335.098 75.946C334.37 74.3894 334.006 72.4992 334.006 70.2755V51.0125H325.944V41.0057H334.006V28.9976H346.604V41.0057H357.689V51.0125Z" fill="#00657C"/>
<path d="M364.091 41.0057H376.688V47.5101H376.856C378.2 45.0084 379.796 43.1461 381.643 41.923C383.491 40.6444 385.815 40.005 388.614 40.005C389.342 40.005 390.07 40.0328 390.798 40.0884C391.525 40.144 392.197 40.2552 392.813 40.422V51.8464C391.917 51.5684 391.022 51.3738 390.126 51.2627C389.286 51.0959 388.39 51.0125 387.438 51.0125C385.031 51.0125 383.127 51.346 381.727 52.0132C380.328 52.6803 379.236 53.6254 378.452 54.8484C377.724 56.0159 377.248 57.4335 377.024 59.1013C376.8 60.7691 376.688 62.6036 376.688 64.605V81.5331H364.091V41.0057Z" fill="#00657C"/>
<path d="M398.459 41.0057H411.056V81.5331H398.459V41.0057ZM397.451 28.2471C397.451 26.2457 398.151 24.5501 399.551 23.1603C401.006 21.7149 402.742 20.9922 404.758 20.9922C406.773 20.9922 408.481 21.7149 409.881 23.1603C411.336 24.5501 412.064 26.2457 412.064 28.2471C412.064 30.2484 411.336 31.9718 409.881 33.4173C408.481 34.8071 406.773 35.502 404.758 35.502C402.742 35.502 401.006 34.8071 399.551 33.4173C398.151 31.9718 397.451 30.2484 397.451 28.2471Z" fill="#00657C"/>
<path d="M415.824 41.0057H429.429L439.759 68.5243H439.927L449.501 41.0057H462.182L446.058 81.5331H432.704L415.824 41.0057Z" fill="#00657C"/>
<path d="M466.941 41.0057H479.538V81.5331H466.941V41.0057ZM465.933 28.2471C465.933 26.2457 466.633 24.5501 468.033 23.1603C469.488 21.7149 471.224 20.9922 473.24 20.9922C475.255 20.9922 476.963 21.7149 478.363 23.1603C479.818 24.5501 480.546 26.2457 480.546 28.2471C480.546 30.2484 479.818 31.9718 478.363 33.4173C476.963 34.8071 475.255 35.502 473.24 35.502C471.224 35.502 469.488 34.8071 468.033 33.4173C466.633 31.9718 465.933 30.2484 465.933 28.2471Z" fill="#00657C"/>
<path d="M514.204 76.4463H514.036C512.636 78.6145 510.76 80.1711 508.409 81.1162C506.113 82.0612 503.678 82.5338 501.102 82.5338C499.199 82.5338 497.351 82.2558 495.559 81.6999C493.824 81.1996 492.284 80.4212 490.94 79.365C489.597 78.3087 488.533 77.0023 487.749 75.4457C486.965 73.8891 486.573 72.0823 486.573 70.0253C486.573 67.6904 486.993 65.7169 487.833 64.1047C488.729 62.4925 489.905 61.1582 491.36 60.102C492.872 59.0457 494.58 58.2396 496.483 57.6837C498.387 57.0721 500.346 56.6274 502.362 56.3494C504.434 56.0715 506.477 55.9047 508.493 55.8491C510.564 55.7935 512.468 55.7657 514.204 55.7657C514.204 53.542 513.392 51.7908 511.768 50.5121C510.2 49.1779 508.325 48.5108 506.141 48.5108C504.07 48.5108 502.166 48.9555 500.43 49.845C498.751 50.6789 497.239 51.8464 495.895 53.3474L489.177 46.5094C491.528 44.3413 494.272 42.7291 497.407 41.6728C500.542 40.561 503.79 40.005 507.149 40.005C510.844 40.005 513.868 40.4776 516.219 41.4227C518.627 42.3122 520.53 43.6464 521.93 45.4254C523.386 47.2043 524.393 49.4003 524.953 52.0132C525.513 54.5704 525.793 57.5447 525.793 60.9359V81.5331H514.204V76.4463ZM511.096 63.7711C510.144 63.7711 508.941 63.8267 507.485 63.9379C506.085 63.9935 504.713 64.2158 503.37 64.605C502.082 64.9942 500.962 65.5779 500.01 66.3562C499.115 67.1345 498.667 68.2186 498.667 69.6084C498.667 71.1094 499.311 72.2213 500.598 72.944C501.886 73.6667 503.23 74.028 504.629 74.028C505.861 74.028 507.037 73.8613 508.157 73.5277C509.333 73.1941 510.368 72.7216 511.264 72.1101C512.16 71.4986 512.86 70.7202 513.364 69.7752C513.924 68.8301 514.204 67.7182 514.204 66.4396V63.7711H511.096Z" fill="#00657C"/>
<g transform="translate(-6.24 2.88) scale(1.07)"><path d="M670.767 150.855H591.029C589.243 150.855 587.796 152.303 587.796 154.088V162.709C587.796 164.494 589.243 165.941 591.029 165.941H670.767C672.553 165.941 674 164.494 674 162.709V154.088C674 152.303 672.553 150.855 670.767 150.855Z" fill="#FFD426"/>
<path d="M662.147 135.771H599.649C597.864 135.771 596.417 137.219 596.417 139.004V147.625C596.417 149.41 597.864 150.857 599.649 150.857H662.147C663.933 150.857 665.38 149.41 665.38 147.625V139.004C665.38 137.219 663.933 135.771 662.147 135.771Z" fill="#FFD426"/>
<path d="M616.531 136.011V49.8066L652.928 65.4801L635.324 136.011H616.531Z" fill="#00657C" fill-opacity="0.58"/>
<path d="M622.278 136.01V78.541L654.844 88.99L639.093 136.01H622.278Z" fill="#6BA6B3"/>
<path d="M628.743 135.771V38.7916L596.417 21.5508L616.531 135.771H628.743Z" fill="#00657C"/>
<path d="M622.278 136.011V62.8185L595.459 49.8066L612.146 136.011H622.278Z" fill="#00657C"/>
<path d="M612.601 0L617.925 14.2236L633.096 14.8917L621.2 24.3526L625.273 38.9857L612.601 30.6024L599.929 38.9857L604.003 24.3526L592.106 14.8917L607.278 14.2236L612.601 0Z" fill="#FFD426"/>
</g></svg>
