<svg width="682" height="167" viewBox="0 0 682 167" fill="none" xmlns="http://www.w3.org/2000/svg">
<path d="M118.233 135.045C116.443 137.332 114.18 139.097 111.446 140.34C108.711 141.583 105.877 142.204 102.944 142.204C100.16 142.204 97.5247 141.757 95.0387 140.862C92.6025 139.967 90.4646 138.699 88.625 137.058C86.8351 135.368 85.4182 133.354 84.3741 131.018C83.33 128.681 82.8079 126.071 82.8079 123.187C82.8079 120.303 83.33 117.693 84.3741 115.356C85.4182 113.019 86.8351 111.031 88.625 109.39C90.4646 107.699 92.6025 106.407 95.0387 105.512C97.5247 104.617 100.16 104.169 102.944 104.169C105.529 104.169 107.866 104.617 109.954 105.512C112.092 106.407 113.882 107.699 115.324 109.39C116.816 111.031 117.959 113.019 118.755 115.356C119.55 117.693 119.948 120.303 119.948 123.187V126.692H93.9946C94.4421 128.83 95.4116 130.545 96.9032 131.838C98.3948 133.081 100.234 133.702 102.422 133.702C104.262 133.702 105.803 133.305 107.046 132.509C108.339 131.664 109.457 130.595 110.402 129.302L118.233 135.045ZM108.761 119.085C108.811 117.196 108.189 115.58 106.897 114.238C105.604 112.895 103.938 112.224 101.9 112.224C100.657 112.224 99.5631 112.423 98.6185 112.821C97.6738 113.218 96.8535 113.74 96.1574 114.387C95.5111 114.983 94.989 115.704 94.5913 116.549C94.2432 117.345 94.0444 118.19 93.9946 119.085H108.761Z" fill="#FF5740"/>
<path d="M147.26 115.729C145.619 113.691 143.456 112.671 140.771 112.671C139.827 112.671 138.907 112.895 138.012 113.343C137.117 113.79 136.67 114.561 136.67 115.654C136.67 116.549 137.117 117.221 138.012 117.668C138.957 118.066 140.125 118.439 141.517 118.787C142.959 119.085 144.475 119.433 146.066 119.831C147.707 120.179 149.224 120.751 150.616 121.546C152.058 122.342 153.226 123.435 154.121 124.828C155.066 126.17 155.538 127.985 155.538 130.272C155.538 132.609 155.016 134.548 153.972 136.089C152.977 137.58 151.685 138.799 150.094 139.743C148.503 140.638 146.713 141.26 144.724 141.608C142.735 142.005 140.771 142.204 138.832 142.204C136.297 142.204 133.736 141.856 131.151 141.16C128.565 140.414 126.378 139.122 124.588 137.282L131.375 129.75C132.419 131.042 133.562 132.037 134.805 132.733C136.098 133.379 137.589 133.702 139.28 133.702C140.573 133.702 141.741 133.528 142.785 133.18C143.829 132.783 144.351 132.087 144.351 131.092C144.351 130.148 143.879 129.451 142.934 129.004C142.039 128.507 140.871 128.109 139.429 127.811C138.037 127.463 136.52 127.115 134.88 126.767C133.289 126.369 131.772 125.797 130.33 125.051C128.938 124.306 127.77 123.261 126.825 121.919C125.93 120.527 125.483 118.687 125.483 116.4C125.483 114.262 125.906 112.423 126.751 110.881C127.646 109.34 128.789 108.072 130.181 107.078C131.623 106.084 133.264 105.363 135.103 104.915C136.943 104.418 138.808 104.169 140.697 104.169C143.083 104.169 145.495 104.517 147.931 105.214C150.367 105.91 152.43 107.153 154.121 108.942L147.26 115.729Z" fill="#FF5740"/>
<path d="M181.781 115.729C180.141 113.691 177.978 112.671 175.293 112.671C174.348 112.671 173.428 112.895 172.534 113.343C171.639 113.79 171.191 114.561 171.191 115.654C171.191 116.549 171.639 117.221 172.534 117.668C173.478 118.066 174.647 118.439 176.039 118.787C177.481 119.085 178.997 119.433 180.588 119.831C182.229 120.179 183.745 120.751 185.137 121.546C186.579 122.342 187.747 123.435 188.642 124.828C189.587 126.17 190.059 127.985 190.059 130.272C190.059 132.609 189.537 134.548 188.493 136.089C187.499 137.58 186.206 138.799 184.615 139.743C183.024 140.638 181.234 141.26 179.246 141.608C177.257 142.005 175.293 142.204 173.354 142.204C170.818 142.204 168.258 141.856 165.672 141.16C163.087 140.414 160.899 139.122 159.109 137.282L165.896 129.75C166.94 131.042 168.084 132.037 169.327 132.733C170.619 133.379 172.111 133.702 173.801 133.702C175.094 133.702 176.262 133.528 177.307 133.18C178.351 132.783 178.873 132.087 178.873 131.092C178.873 130.148 178.4 129.451 177.456 129.004C176.561 128.507 175.392 128.109 173.951 127.811C172.558 127.463 171.042 127.115 169.401 126.767C167.81 126.369 166.294 125.797 164.852 125.051C163.46 124.306 162.291 123.261 161.347 121.919C160.452 120.527 160.004 118.687 160.004 116.4C160.004 114.262 160.427 112.423 161.272 110.881C162.167 109.34 163.311 108.072 164.703 107.078C166.145 106.084 167.785 105.363 169.625 104.915C171.465 104.418 173.329 104.169 175.218 104.169C177.605 104.169 180.016 104.517 182.452 105.214C184.889 105.91 186.952 107.153 188.642 108.942L181.781 115.729Z" fill="#FF5740"/>
<path d="M230.1 135.045C228.31 137.332 226.048 139.097 223.313 140.34C220.579 141.583 217.745 142.204 214.811 142.204C212.027 142.204 209.392 141.757 206.906 140.862C204.47 139.967 202.332 138.699 200.492 137.058C198.702 135.368 197.285 133.354 196.241 131.018C195.197 128.681 194.675 126.071 194.675 123.187C194.675 120.303 195.197 117.693 196.241 115.356C197.285 113.019 198.702 111.031 200.492 109.39C202.332 107.699 204.47 106.407 206.906 105.512C209.392 104.617 212.027 104.169 214.811 104.169C217.397 104.169 219.733 104.617 221.822 105.512C223.959 106.407 225.749 107.699 227.191 109.39C228.683 111.031 229.826 113.019 230.622 115.356C231.417 117.693 231.815 120.303 231.815 123.187V126.692H205.862C206.309 128.83 207.279 130.545 208.77 131.838C210.262 133.081 212.102 133.702 214.289 133.702C216.129 133.702 217.67 133.305 218.913 132.509C220.206 131.664 221.324 130.595 222.269 129.302L230.1 135.045ZM220.628 119.085C220.678 117.196 220.057 115.58 218.764 114.238C217.471 112.895 215.806 112.224 213.767 112.224C212.524 112.224 211.43 112.423 210.486 112.821C209.541 113.218 208.721 113.74 208.025 114.387C207.378 114.983 206.856 115.704 206.458 116.549C206.11 117.345 205.912 118.19 205.862 119.085H220.628Z" fill="#FF5740"/>
<path d="M238.618 105.064H249.357V109.987H249.506C249.854 109.29 250.352 108.594 250.998 107.898C251.644 107.202 252.415 106.581 253.31 106.034C254.205 105.487 255.224 105.04 256.368 104.692C257.511 104.343 258.754 104.169 260.096 104.169C262.93 104.169 265.217 104.617 266.958 105.512C268.698 106.357 270.04 107.55 270.985 109.092C271.979 110.633 272.65 112.448 272.998 114.536C273.346 116.624 273.52 118.886 273.52 121.322V141.309H262.334V123.56C262.334 122.516 262.284 121.447 262.185 120.353C262.135 119.209 261.911 118.165 261.513 117.221C261.165 116.276 260.594 115.505 259.798 114.909C259.052 114.312 257.959 114.014 256.517 114.014C255.075 114.014 253.906 114.287 253.012 114.834C252.117 115.331 251.42 116.027 250.923 116.922C250.476 117.768 250.178 118.737 250.028 119.831C249.879 120.925 249.805 122.068 249.805 123.261V141.309H238.618V105.064Z" fill="#FF5740"/>
<path d="M306.127 114.014H296.283V126.095C296.283 127.09 296.333 128.01 296.432 128.855C296.532 129.65 296.755 130.346 297.103 130.943C297.452 131.54 297.974 132.012 298.67 132.36C299.415 132.658 300.385 132.807 301.578 132.807C302.175 132.807 302.945 132.758 303.89 132.658C304.884 132.509 305.63 132.211 306.127 131.763V141.086C304.884 141.533 303.592 141.831 302.249 141.981C300.907 142.13 299.589 142.204 298.297 142.204C296.407 142.204 294.667 142.005 293.076 141.608C291.485 141.21 290.093 140.588 288.9 139.743C287.707 138.848 286.762 137.705 286.066 136.313C285.42 134.921 285.096 133.23 285.096 131.241V114.014H277.937V105.064H285.096V94.3252H296.283V105.064H306.127V114.014Z" fill="#FF5740"/>
<path d="M311.961 105.064H323.148V141.309H311.961V105.064ZM311.066 93.6539C311.066 91.8641 311.688 90.3476 312.931 89.1047C314.224 87.812 315.765 87.1657 317.555 87.1657C319.345 87.1657 320.861 87.812 322.104 89.1047C323.397 90.3476 324.043 91.8641 324.043 93.6539C324.043 95.4438 323.397 96.9851 322.104 98.2778C320.861 99.5208 319.345 100.142 317.555 100.142C315.765 100.142 314.224 99.5208 312.931 98.2778C311.688 96.9851 311.066 95.4438 311.066 93.6539Z" fill="#FF5740"/>
<path d="M353.931 136.76H353.782C352.539 138.699 350.874 140.091 348.786 140.936C346.747 141.782 344.584 142.204 342.297 142.204C340.607 142.204 338.966 141.956 337.375 141.459C335.834 141.011 334.467 140.315 333.273 139.37C332.08 138.426 331.135 137.257 330.439 135.865C329.743 134.473 329.395 132.857 329.395 131.018C329.395 128.929 329.768 127.164 330.514 125.723C331.309 124.281 332.353 123.087 333.646 122.143C334.989 121.198 336.505 120.477 338.195 119.98C339.886 119.433 341.626 119.035 343.416 118.787C345.255 118.538 347.07 118.389 348.86 118.339C350.7 118.29 352.39 118.265 353.931 118.265C353.931 116.276 353.21 114.71 351.769 113.566C350.377 112.373 348.711 111.776 346.772 111.776C344.932 111.776 343.242 112.174 341.701 112.97C340.209 113.715 338.867 114.76 337.673 116.102L331.707 109.987C333.795 108.048 336.232 106.606 339.016 105.661C341.8 104.667 344.684 104.169 347.667 104.169C350.948 104.169 353.633 104.592 355.721 105.437C357.859 106.233 359.55 107.426 360.793 109.017C362.085 110.608 362.98 112.572 363.477 114.909C363.975 117.196 364.223 119.856 364.223 122.889V141.309H353.931V136.76ZM351.172 125.424C350.327 125.424 349.258 125.474 347.965 125.573C346.722 125.623 345.504 125.822 344.311 126.17C343.167 126.518 342.173 127.04 341.328 127.736C340.532 128.432 340.134 129.402 340.134 130.645C340.134 131.987 340.706 132.981 341.85 133.628C342.993 134.274 344.187 134.597 345.43 134.597C346.523 134.597 347.567 134.448 348.562 134.15C349.606 133.852 350.526 133.429 351.321 132.882C352.117 132.335 352.738 131.639 353.186 130.794C353.683 129.949 353.931 128.954 353.931 127.811V125.424H351.172Z" fill="#FF5740"/>
<path d="M371.391 84.9283H382.578V141.309H371.391V84.9283Z" fill="#FF5740"/>
<path d="M411.124 115.729C409.483 113.691 407.32 112.671 404.635 112.671C403.691 112.671 402.771 112.895 401.876 113.343C400.981 113.79 400.533 114.561 400.533 115.654C400.533 116.549 400.981 117.221 401.876 117.668C402.82 118.066 403.989 118.439 405.381 118.787C406.823 119.085 408.339 119.433 409.93 119.831C411.571 120.179 413.087 120.751 414.48 121.546C415.921 122.342 417.09 123.435 417.985 124.828C418.929 126.17 419.402 127.985 419.402 130.272C419.402 132.609 418.88 134.548 417.836 136.089C416.841 137.58 415.548 138.799 413.957 139.743C412.366 140.638 410.577 141.26 408.588 141.608C406.599 142.005 404.635 142.204 402.696 142.204C400.161 142.204 397.6 141.856 395.015 141.16C392.429 140.414 390.242 139.122 388.452 137.282L395.238 129.75C396.282 131.042 397.426 132.037 398.669 132.733C399.962 133.379 401.453 133.702 403.144 133.702C404.436 133.702 405.605 133.528 406.649 133.18C407.693 132.783 408.215 132.087 408.215 131.092C408.215 130.148 407.743 129.451 406.798 129.004C405.903 128.507 404.735 128.109 403.293 127.811C401.901 127.463 400.384 127.115 398.744 126.767C397.153 126.369 395.636 125.797 394.194 125.051C392.802 124.306 391.634 123.261 390.689 121.919C389.794 120.527 389.347 118.687 389.347 116.4C389.347 114.262 389.769 112.423 390.615 110.881C391.509 109.34 392.653 108.072 394.045 107.078C395.487 106.084 397.128 105.363 398.967 104.915C400.807 104.418 402.671 104.169 404.561 104.169C406.947 104.169 409.359 104.517 411.795 105.214C414.231 105.91 416.294 107.153 417.985 108.942L411.124 115.729Z" fill="#FF5740"/>
<path d="M35.4246 73.5179C33.6347 75.8049 31.3725 77.5699 28.638 78.8129C25.9035 80.0559 23.0695 80.6774 20.1361 80.6774C17.3518 80.6774 14.7167 80.2299 12.2308 79.335C9.79459 78.44 7.65669 77.1722 5.81709 75.5315C4.02722 73.841 2.61023 71.8274 1.56614 69.4906C0.522047 67.1539 0 64.5436 0 61.6599C0 58.7763 0.522047 56.166 1.56614 53.8292C2.61023 51.4925 4.02722 49.5037 5.81709 47.863C7.65669 46.1726 9.79459 44.8799 12.2308 43.9849C14.7167 43.09 17.3518 42.6425 20.1361 42.6425C22.7215 42.6425 25.0582 43.09 27.1464 43.9849C29.2843 44.8799 31.0742 46.1726 32.5161 47.863C34.0076 49.5037 35.1512 51.4925 35.9467 53.8292C36.7422 56.166 37.1399 58.7763 37.1399 61.6599V65.1651H11.1867C11.6342 67.303 12.6037 69.0183 14.0953 70.311C15.5868 71.554 17.4264 72.1755 19.614 72.1755C21.4536 72.1755 22.9949 71.7777 24.2379 70.9822C25.5306 70.137 26.6492 69.068 27.5939 67.7753L35.4246 73.5179ZM25.9532 57.5581C26.0029 55.6688 25.3814 54.053 24.0887 52.7106C22.796 51.3682 21.1305 50.697 19.092 50.697C17.849 50.697 16.7552 50.8958 15.8106 51.2936C14.8659 51.6913 14.0455 52.2134 13.3495 52.8597C12.7031 53.4563 12.1811 54.1773 11.7833 55.0225C11.4353 55.818 11.2364 56.6632 11.1867 57.5581H25.9532Z" fill="#59B0C4"/>
<path d="M43.9428 43.5375H54.6821V48.4596H54.8312C55.1793 47.7636 55.6764 47.0675 56.3228 46.3714C56.9691 45.6754 57.7398 45.0539 58.6347 44.507C59.5296 43.9601 60.5489 43.5126 61.6924 43.1646C62.8359 42.8165 64.0789 42.6425 65.4213 42.6425C67.957 42.6425 70.1943 43.1646 72.1334 44.2087C74.1221 45.2528 75.6137 46.8935 76.608 49.1308C77.9007 46.794 79.4669 45.1285 81.3065 44.1341C83.1461 43.1397 85.4083 42.6425 88.0931 42.6425C90.5293 42.6425 92.5678 43.0651 94.2085 43.9103C95.8989 44.7058 97.2165 45.8245 98.1611 47.2664C99.1555 48.6585 99.8515 50.3241 100.249 52.2631C100.697 54.1524 100.921 56.1909 100.921 58.3785V79.7824H89.7338V58.6768C89.7338 56.9864 89.3609 55.5445 88.6151 54.3513C87.9191 53.1083 86.6512 52.4868 84.8116 52.4868C83.5189 52.4868 82.4251 52.7106 81.5302 53.158C80.685 53.5558 79.9889 54.1276 79.442 54.8733C78.9448 55.6191 78.5719 56.4892 78.3233 57.4836C78.1245 58.4779 78.025 59.522 78.025 60.6158V79.7824H66.8383V60.6158C66.8383 59.9695 66.8134 59.174 66.7637 58.2293C66.714 57.2847 66.54 56.3898 66.2417 55.5445C65.9434 54.6993 65.4462 53.9784 64.7501 53.3818C64.1038 52.7851 63.1343 52.4868 61.8416 52.4868C60.3997 52.4868 59.2313 52.7603 58.3364 53.3072C57.4415 53.8044 56.7454 54.5004 56.2482 55.3954C55.8007 56.2406 55.5024 57.2101 55.3533 58.3039C55.2041 59.3977 55.1295 60.5413 55.1295 61.7345V79.7824H43.9428V43.5375Z" fill="#59B0C4"/>
<path d="M109.879 43.5375H120.17V48.3105H120.32C120.767 47.6641 121.339 47.0178 122.035 46.3714C122.781 45.6754 123.626 45.0539 124.571 44.507C125.565 43.9601 126.634 43.5126 127.777 43.1646C128.921 42.8165 130.139 42.6425 131.432 42.6425C134.117 42.6425 136.553 43.1148 138.74 44.0595C140.928 44.9544 142.792 46.2471 144.334 47.9376C145.925 49.5783 147.143 51.5422 147.988 53.8292C148.833 56.1163 149.256 58.6271 149.256 61.3616C149.256 63.8973 148.858 66.3335 148.063 68.6703C147.317 70.9573 146.223 72.9958 144.781 74.7857C143.389 76.5756 141.674 78.0174 139.635 79.1112C137.597 80.1553 135.285 80.6774 132.7 80.6774C130.363 80.6774 128.175 80.3293 126.137 79.6333C124.148 78.8875 122.507 77.6445 121.214 75.9044H121.065V96.7862H109.879V43.5375ZM120.17 61.6599C120.17 64.3945 120.941 66.607 122.482 68.2974C124.073 69.9878 126.286 70.833 129.12 70.833C131.954 70.833 134.141 69.9878 135.683 68.2974C137.274 66.607 138.069 64.3945 138.069 61.6599C138.069 58.9254 137.274 56.7129 135.683 55.0225C134.141 53.332 131.954 52.4868 129.12 52.4868C126.286 52.4868 124.073 53.332 122.482 55.0225C120.941 56.7129 120.17 58.9254 120.17 61.6599Z" fill="#59B0C4"/>
<path d="M154.468 61.6599C154.468 58.7763 154.99 56.166 156.034 53.8292C157.078 51.4925 158.495 49.5037 160.285 47.863C162.124 46.1726 164.262 44.8799 166.698 43.9849C169.184 43.09 171.819 42.6425 174.604 42.6425C177.388 42.6425 179.998 43.09 182.434 43.9849C184.92 44.8799 187.058 46.1726 188.848 47.863C190.688 49.5037 192.13 51.4925 193.174 53.8292C194.218 56.166 194.74 58.7763 194.74 61.6599C194.74 64.5436 194.218 67.1539 193.174 69.4906C192.13 71.8274 190.688 73.841 188.848 75.5315C187.058 77.1722 184.92 78.44 182.434 79.335C179.998 80.2299 177.388 80.6774 174.604 80.6774C171.819 80.6774 169.184 80.2299 166.698 79.335C164.262 78.44 162.124 77.1722 160.285 75.5315C158.495 73.841 157.078 71.8274 156.034 69.4906C154.99 67.1539 154.468 64.5436 154.468 61.6599ZM165.654 61.6599C165.654 64.3945 166.425 66.607 167.966 68.2974C169.557 69.9878 171.77 70.833 174.604 70.833C177.438 70.833 179.625 69.9878 181.167 68.2974C182.758 66.607 183.553 64.3945 183.553 61.6599C183.553 58.9254 182.758 56.7129 181.167 55.0225C179.625 53.332 177.438 52.4868 174.604 52.4868C171.77 52.4868 169.557 53.332 167.966 55.0225C166.425 56.7129 165.654 58.9254 165.654 61.6599Z" fill="#59B0C4"/>
<path d="M197.003 43.5375H208.936L216.319 66.2838H216.468L222.658 43.5375H234.889L241.601 66.2838H241.75L248.537 43.5375H259.873L246.971 79.7824H235.933L228.401 55.6937H228.252L221.54 79.7824H210.278L197.003 43.5375Z" fill="#59B0C4"/>
<path d="M297.759 73.5179C295.969 75.8049 293.707 77.5699 290.972 78.8129C288.238 80.0559 285.404 80.6774 282.47 80.6774C279.686 80.6774 277.051 80.2299 274.565 79.335C272.129 78.44 269.991 77.1722 268.151 75.5315C266.362 73.841 264.945 71.8274 263.9 69.4906C262.856 67.1539 262.334 64.5436 262.334 61.6599C262.334 58.7763 262.856 56.166 263.9 53.8292C264.945 51.4925 266.362 49.5037 268.151 47.863C269.991 46.1726 272.129 44.8799 274.565 43.9849C277.051 43.09 279.686 42.6425 282.47 42.6425C285.056 42.6425 287.393 43.09 289.481 43.9849C291.619 44.8799 293.409 46.1726 294.85 47.863C296.342 49.5037 297.485 51.4925 298.281 53.8292C299.076 56.166 299.474 58.7763 299.474 61.6599V65.1651H273.521C273.969 67.303 274.938 69.0183 276.43 70.311C277.921 71.554 279.761 72.1755 281.948 72.1755C283.788 72.1755 285.329 71.7777 286.572 70.9822C287.865 70.137 288.984 69.068 289.928 67.7753L297.759 73.5179ZM288.288 57.5581C288.337 55.6688 287.716 54.053 286.423 52.7106C285.13 51.3682 283.465 50.697 281.426 50.697C280.183 50.697 279.09 50.8958 278.145 51.2936C277.2 51.6913 276.38 52.2134 275.684 52.8597C275.037 53.4563 274.515 54.1773 274.118 55.0225C273.77 55.818 273.571 56.6632 273.521 57.5581H288.288Z" fill="#59B0C4"/>
<path d="M306.277 43.5375H317.464V49.3546H317.613C318.806 47.1172 320.223 45.4516 321.864 44.3578C323.505 43.2143 325.568 42.6425 328.054 42.6425C328.7 42.6425 329.347 42.6674 329.993 42.7171C330.639 42.7668 331.236 42.8663 331.783 43.0154V53.2326C330.987 52.984 330.192 52.81 329.396 52.7106C328.651 52.5614 327.855 52.4868 327.01 52.4868C324.872 52.4868 323.182 52.7851 321.939 53.3818C320.696 53.9784 319.726 54.8236 319.03 55.9174C318.384 56.9615 317.961 58.2293 317.762 59.7209C317.563 61.2125 317.464 62.8532 317.464 64.6431V79.7824H306.277V43.5375Z" fill="#59B0C4"/>
<path d="M369.642 73.5179C367.852 75.8049 365.59 77.5699 362.856 78.8129C360.121 80.0559 357.287 80.6774 354.354 80.6774C351.57 80.6774 348.934 80.2299 346.449 79.335C344.012 78.44 341.874 77.1722 340.035 75.5315C338.245 73.841 336.828 71.8274 335.784 69.4906C334.74 67.1539 334.218 64.5436 334.218 61.6599C334.218 58.7763 334.74 56.166 335.784 53.8292C336.828 51.4925 338.245 49.5037 340.035 47.863C341.874 46.1726 344.012 44.8799 346.449 43.9849C348.934 43.09 351.57 42.6425 354.354 42.6425C356.939 42.6425 359.276 43.09 361.364 43.9849C363.502 44.8799 365.292 46.1726 366.734 47.863C368.225 49.5037 369.369 51.4925 370.164 53.8292C370.96 56.166 371.358 58.7763 371.358 61.6599V65.1651H345.404C345.852 67.303 346.821 69.0183 348.313 70.311C349.805 71.554 351.644 72.1755 353.832 72.1755C355.671 72.1755 357.213 71.7777 358.456 70.9822C359.748 70.137 360.867 69.068 361.812 67.7753L369.642 73.5179ZM360.171 57.5581C360.221 55.6688 359.599 54.053 358.306 52.7106C357.014 51.3682 355.348 50.697 353.31 50.697C352.067 50.697 350.973 50.8958 350.028 51.2936C349.084 51.6913 348.263 52.2134 347.567 52.8597C346.921 53.4563 346.399 54.1773 346.001 55.0225C345.653 55.818 345.454 56.6632 345.404 57.5581H360.171Z" fill="#59B0C4"/>
<path d="M416.195 79.7824H405.904V75.0094H405.754C405.307 75.6558 404.71 76.327 403.965 77.023C403.269 77.6694 402.423 78.266 401.429 78.8129C400.484 79.3598 399.415 79.8073 398.222 80.1553C397.079 80.5033 395.885 80.6774 394.642 80.6774C391.958 80.6774 389.521 80.2299 387.334 79.335C385.146 78.3903 383.257 77.0976 381.666 75.4569C380.124 73.7665 378.931 71.7777 378.086 69.4906C377.241 67.2036 376.818 64.6928 376.818 61.9583C376.818 59.4226 377.191 57.0112 377.937 54.7242C378.732 52.3874 379.826 50.3241 381.218 48.5342C382.66 46.7443 384.4 45.3273 386.439 44.2832C388.477 43.1894 390.789 42.6425 393.374 42.6425C395.711 42.6425 397.874 43.0154 399.863 43.7612C401.901 44.4573 403.567 45.6754 404.86 47.4155H405.009V23.4014H416.195V79.7824ZM405.904 61.6599C405.904 58.9254 405.108 56.7129 403.517 55.0225C401.976 53.332 399.788 52.4868 396.954 52.4868C394.12 52.4868 391.908 53.332 390.317 55.0225C388.776 56.7129 388.005 58.9254 388.005 61.6599C388.005 64.3945 388.776 66.607 390.317 68.2974C391.908 69.9878 394.12 70.833 396.954 70.833C399.788 70.833 401.976 69.9878 403.517 68.2974C405.108 66.607 405.904 64.3945 405.904 61.6599Z" fill="#59B0C4"/>
<g clip-path="url(#clip0_3912_38)">
<g transform="translate(-112.9 -17.59) scale(1.21)"><path d="M521.626 64.545C528.623 64.545 534.295 58.3931 534.295 50.8045C534.295 43.2158 528.623 37.064 521.626 37.064C514.629 37.064 508.957 43.2158 508.957 50.8045C508.957 58.3931 514.629 64.545 521.626 64.545Z" fill="#FF5740"/>
<path d="M492.065 92.0258C492.065 80.7515 501.567 66.6587 520.57 66.6587C539.574 66.6587 549.076 80.7515 549.076 92.0258H492.065Z" fill="#FF5740"/>
<path d="M603.606 138.975C606.278 141.583 606.311 145.863 603.681 148.532C601.051 151.201 596.752 151.252 594.081 148.643L555.605 111.073L565.128 101.405L603.606 138.975Z" fill="#FFD426" stroke="#FFD426" stroke-width="0.1" stroke-linecap="round"/>
<path d="M561.983 68.4888C561.983 46.2377 543.872 28.2615 521.609 28.2612C499.345 28.2612 481.234 46.2376 481.234 68.4888C481.235 90.7399 499.346 108.716 521.609 108.716C543.872 108.716 561.983 90.7398 561.983 68.4888ZM573.481 68.4888C573.481 96.9525 550.291 120.09 521.609 120.09C492.926 120.09 469.736 96.9527 469.736 68.4888C469.736 40.0248 492.926 16.8877 521.609 16.8877C550.291 16.8879 573.481 40.0249 573.481 68.4888Z" fill="#FFD426" stroke="#FFD426" stroke-width="0.1"/>
</g>
<defs>
<clipPath id="clip0_3912_38">
<rect width="141.471" height="167" fill="white" transform="translate(464.077)"/>
</clipPath>
</defs>
</g></svg>
