<?xml version="1.0" encoding="UTF-8"?>
<svg width="512pt" height="512pt" version="1.1" viewBox="0 0 512 512" xmlns="http://www.w3.org/2000/svg">
 <path d="m293.19 251.28c-4.5977-6.5273-12.082-10.41-20.062-10.41h-67.633c-1.7812-1.8164-3.8672-3.7461-6.3047-5.8281-24.312-17.809-44.18-46.625-59.578-68.902 14.035 11.449 26.789 24.367 37.988 38.574 7.3828 3.0078 14.742 6.4688 22.043 10.387-2.0156-8.1016-4.457-16.203-7.332-24.262-19.617-18.23-64.965-48.836-82.656-53.688-5.9062-2.1289-11.961-2.6289-17.418-0.98047 0.13672 4.1758-0.25781 8.3945-1.2344 12.57-2.9727 12.773-10.781 23.27-21.207 29.824 0.71484 6.3281 2.6758 13.059 6.2383 20.004 4.5391 8.7188 8.9336 16.465 13.449 23.598l-5.3281-36.797c-0.76953-5.293 0.57422-10.566 3.7734-14.852 3.2031-4.2852 7.8789-7.0664 13.172-7.832 0.95313-0.13672 1.9297-0.20703 2.8906-0.20703 9.8672 0 18.375 7.375 19.793 17.156l13.785 95.203c2.9727 2.3945 6.0391 4.8086 9.3164 7.3008 11.852 7.6562 21.84 9.3906 30.363 7.8164h83.141l71.195 101.08c4.7812 6.7852 12.371 10.41 20.082 10.41 4.8828 0 9.8164-1.4531 14.109-4.4766 11.078-7.8047 13.734-23.113 5.9297-34.195z" fill="#ff563f"/>
 <path d="m286.1 234.07h175.52v164.91h20.613v-164.91h29.773v-19.633h-225.9z" fill="#ff563f"/>
 <path d="m449.45 204.3 42.48-83.59-12.25-6.2266-38.664 76.074h-82.16v13.742z" fill="#ff563f"/>
 <path d="m95.684 264.97-45.398-78.09c-0.25391-0.4375-0.52734-0.85938-0.82031-1.2578-1.7305 0.1875-3.4805 0.31641-5.2539 0.31641-3.6602 0-7.3398-0.42969-10.941-1.2617-1.8125-0.42188-3.5742-0.95312-5.2891-1.5664-5.2969 4.5312-6.7812 12.328-3.1523 18.57l70.215 120.77c2.1836 3.7539 5.8906 6.2852 10.078 7.0547-0.14062-0.58984-0.25781-1.1914-0.34766-1.8008z" fill="#ff563f"/>
 <path d="m144 329.77h9.8047l2.375 23.91c-47.504 2.4531-59.945 22.473-60.48 23.375l-0.82422 1.3906v8.7969c-6.4141 2.0586-11.062 8.0664-11.062 15.164 0 8.793 7.1328 15.922 15.926 15.922s15.922-7.1289 15.922-15.922c0-6.3164-3.6836-11.754-9.0117-14.332v-6c3.2422-3.6016 16.176-15 50.695-16.656l2.1836 22.016c-6.1406 2.2109-10.535 8.0703-10.535 14.973 0 8.793 7.1289 15.922 15.922 15.922 8.793 0 15.926-7.1289 15.926-15.922 0-6.1406-3.4805-11.461-8.5703-14.117l2.2695-22.871c34.652 1.6602 47.547 13.137 50.699 16.637v5.7461c-5.6367 2.4531-9.582 8.0664-9.582 14.605 0 8.793 7.1289 15.922 15.922 15.922 8.7969 0 15.926-7.1289 15.926-15.922 0-6.8828-4.375-12.73-10.492-14.953v-9.0039l-0.82422-1.3906c-0.53516-0.90625-12.977-20.926-60.484-23.375l2.375-23.91h45.504c8.1328 0 14.723-6.5898 14.723-14.723 0-8.1328-6.5938-14.723-14.723-14.723l-82.312-0.007813 3.1328 21.637c0.38281 2.6484 0.24219 5.293-0.40234 7.8125z" fill="#ff563f"/>
 <path d="m101.72 166.96c-8.5859 1.2422-14.535 9.2109-13.293 17.793l20.613 142.33c1.1328 7.8203 7.8477 13.457 15.523 13.457 0.75 0 1.5078-0.054687 2.2695-0.16406 8.5859-1.2422 14.535-9.2109 13.293-17.793l-20.613-142.33c-1.2422-8.5859-9.2188-14.539-17.793-13.293z" fill="#ff563f"/>
 <path d="m34.156 180.85c23.754 5.5312 47.488-9.2422 53.023-32.996 5.5312-23.754-9.2422-47.492-32.996-53.02-23.75-5.5312-47.492 9.2383-53.023 32.988-5.5312 23.754 9.2461 47.496 32.996 53.027zm33.828-57.242c7.0469 0 12.762 6.3008 12.762 14.07s-5.7109 14.07-12.762 14.07c-7.0469 0-12.762-6.3008-12.762-14.07s5.7109-14.07 12.762-14.07z" fill="#ff563f"/>
</svg>
