<?xml version="1.0" encoding="UTF-8"?>
<svg width="512pt" height="512pt" version="1.1" viewBox="0 0 512 512" xmlns="http://www.w3.org/2000/svg">
 <path d="m225.67 115.4c-52.703 15.168-82.645 31.332-125.9 69.391-29.504 30.238-16.816 56.027-3.1328 75.258 3.4297 4.8242 6.5078 8.8906 9.6445 11.926l34.949 91.754-18.715 110.7c-2.9688 17.535 8.8438 34.148 26.375 37.117 1.8203 0.30469 3.625 0.45703 5.4141 0.45703 15.418 0 29.043-11.117 31.703-26.832l19.941-117.95c-0.76562 0.066406-1.5391 0.10938-2.3164 0.10938-2.6445 0-5.2812-0.41016-7.8242-1.2227-13.531-4.3125-21.027-18.84-16.715-32.367l8.9414-28.047-21.672-56.883c15.168-10.492 32.012-19.426 48.496-27.227l17.895-56.125c3.4141-10.723 13.273-17.934 24.523-17.934 2.6523 0 5.293 0.41797 7.8398 1.2305 6.5508 2.0859 11.902 6.6016 15.062 12.715 3.1562 6.1094 3.7422 13.086 1.6523 19.641l-3.7461 11.754c17.328-11.605 28.277-30.953 21.953-47.68-8.0156-21.195-35.984-40.605-74.371-29.789z" fill="#fdd02e"/>
 <path d="m263.55 153.66c-10.84-3.4609-22.438 2.5273-25.895 13.367l-53.656 168.29c-3.4609 10.84 2.5273 22.434 13.367 25.891 2.082 0.66406 4.1914 0.98047 6.2656 0.98047 8.7305 0 16.832-5.5938 19.625-14.352l53.664-168.28c3.4531-10.848-2.5312-22.438-13.371-25.895z" fill="#fdd02e"/>
 <path d="m428.62 151.26c7.3477 31.145-11.945 62.348-43.09 69.695-31.145 7.3477-62.352-11.945-69.695-43.086-7.3477-31.145 11.945-62.348 43.09-69.695 31.145-7.3477 62.348 11.941 69.695 43.086z" fill="#fdd02e"/>
 <path d="m354.4 6.1289c2.4922-2.3945 0.09375-7.9531-2.4219-5.5312-6.2891 6.0352-11.031 14.637-12.059 24.988-1.1094 11.164 7.1328 18.32 8.0586 28.801 0.625 7.0469-2.6719 14.773-6.4453 19.469-2.2734 2.8281 1.1328 7.3516 3.3945 4.5352 6.3242-7.8672 9.0859-19.25 7-30.41-2.0781-11.113-10-16.461-5.7188-29.133 1.668-4.9336 4.9023-9.5625 8.1914-12.719z" fill="#fdd02e"/>
 <path d="m382.56 6.1289c2.4922-2.3945 0.09375-7.9531-2.4219-5.5312-6.2812 6.0352-11.031 14.637-12.059 24.988-1.1016 11.164 7.1328 18.32 8.0625 28.801 0.625 7.0469-2.6719 14.773-6.4453 19.469-2.2734 2.8281 1.1328 7.3516 3.3945 4.5352 6.3242-7.8672 9.0859-19.25 7-30.41-2.0742-11.113-10-16.461-5.7188-29.133 1.6641-4.9336 4.8984-9.5625 8.1875-12.719z" fill="#fdd02e"/>
 <path d="m410.72 6.1289c2.4922-2.3945 0.097656-7.9531-2.4219-5.5312-6.2852 6.0352-11.031 14.637-12.059 24.988-1.1055 11.164 7.1328 18.32 8.0586 28.801 0.625 7.0469-2.6719 14.773-6.4453 19.469-2.2734 2.8281 1.1367 7.3516 3.3984 4.5352 6.3203-7.8672 9.082-19.25 7-30.41-2.0742-11.113-10.004-16.461-5.7188-29.133 1.668-4.9336 4.9023-9.5625 8.1875-12.719z" fill="#fdd02e"/>
</svg>
