<?xml version="1.0" encoding="UTF-8"?>
<svg width="512pt" height="512pt" version="1.1" viewBox="0 0 512 512" xmlns="http://www.w3.org/2000/svg">
 <path d="m126.72 105.13c18.668 9.8945 44.094 18.145 68.414 21.227v357.82c0 15.371 12.461 27.82 27.82 27.82 15.367 0 27.828-12.453 27.828-27.82v-214.04h10.43v214.04c0 15.371 12.461 27.82 27.82 27.82 15.367 0 27.828-12.453 27.828-27.82v-357.82c24.324-3.082 49.746-11.332 68.414-21.227 7.832-4.3516 14.535-8.668 20.215-15.523 3.1055-3.9258 6.4258-9.4336 6.5156-17.23 0.03125-3.9766-1.0898-8.2109-3.0234-11.613-1.918-3.4414-4.4336-6.0664-6.9766-8.0586-5.1484-3.9609-10.445-5.957-16.457-7.6367-11.559-3.0625-26.453-4.4688-47.32-4.6016-0.33203-0.070312-0.68359-0.10938-1.0391-0.10938l-25.879-0.003906c0.60938 3.2852 0.94141 6.668 0.95312 10.125h16.859c-1.9766 10.652 0.27734 25.977 6.7617 25.977 9.6523-0.007812 17.734 0.32422 24.273 0.89062-1.9766 0.875-4.0664 1.7383-6.2305 2.5703-16.559 6.5078-38.184 11.438-53.555 11.711-0.30078-0.015625-0.59766-0.046875-0.89844-0.046875h-4.957c-10.074 9.4805-23.625 15.309-38.52 15.309-14.887 0-28.441-5.8281-38.512-15.309h-4.957c-0.30469 0-0.60156 0.027344-0.89844 0.046875-15.371-0.27344-36.996-5.207-53.555-11.711-2.1641-0.83203-4.2539-1.6953-6.2305-2.5703 6.5391-0.56641 14.617-0.89844 24.273-0.89062 6.4844 0 8.7383-15.324 6.7617-25.977h16.863c0.007812-3.457 0.34375-6.8398 0.95312-10.125h-25.891c-0.35547 0-0.70313 0.039062-1.0391 0.10938-20.867 0.13672-35.762 1.5352-47.32 4.6016-6.0156 1.6797-11.309 3.6797-16.457 7.6367-2.5391 1.9922-5.0586 4.6133-6.9766 8.0586-1.9297 3.4062-3.0547 7.6406-3.0234 11.617 0.089844 7.7969 3.4141 13.305 6.5156 17.23 5.6797 6.8555 12.387 11.176 20.215 15.523z" fill="#03b9d1"/>
 <path d="m306.63 50.633c0 27.965-22.668 50.637-50.633 50.637s-50.637-22.672-50.637-50.637c0-27.965 22.672-50.633 50.637-50.633s50.633 22.668 50.633 50.633z" fill="#03b9d1"/>
</svg>
