<svg width="214" height="162" viewBox="0 0 214 162" fill="none" xmlns="http://www.w3.org/2000/svg">
<rect x="1" y="1" width="183.481" height="98.4513" rx="6" fill="#00657C" stroke="#FFD426" stroke-width="2"/>
<rect x="15.2262" y="15.2266" width="183.481" height="98.4513" rx="6" fill="#00657C" stroke="#FFD426" stroke-width="2"/>
<rect x="29.4523" y="29.4512" width="183.481" height="98.4513" rx="6" fill="#00657C" stroke="#FFD426" stroke-width="2"/>
<path d="M201.583 148.659C204.318 151.375 204.735 155.392 202.513 157.63C200.291 159.868 196.271 159.481 193.536 156.765L145.134 108.716L153.181 100.61L201.583 148.659Z" fill="#FFD426" stroke="#00657C" stroke-width="0.5"/>
<path d="M150.215 80.6306C150.215 65.5812 138.029 53.423 123.051 53.4229C108.072 53.4229 95.8869 65.5811 95.8869 80.6306C95.887 95.68 108.072 107.838 123.051 107.838C138.029 107.838 150.214 95.6799 150.215 80.6306ZM157.951 80.6306C157.951 99.8819 142.348 115.531 123.051 115.531C103.753 115.531 88.1507 99.882 88.1506 80.6306C88.1506 61.3791 103.753 45.7305 123.051 45.7305C142.349 45.7306 157.951 61.3792 157.951 80.6306Z" fill="#FFD426" stroke="#00657C" stroke-width="0.5"/>
<circle cx="123.104" cy="80.335" r="25.3819" fill="#FFD426"/>
<path d="M123.465 101.795C122.989 101.795 122.75 101.543 122.75 101.038V97.1185C120.38 97.0443 118.593 96.7102 117.387 96.1163C116.181 95.5076 115.311 94.8469 114.778 94.1342C114.652 93.9412 114.54 93.7556 114.442 93.5775C114.344 93.3993 114.274 93.1989 114.232 92.9762C114.175 92.6792 114.119 92.2932 114.063 91.8181C114.007 91.3282 114 90.764 114.042 90.1256C114.056 89.8583 114.105 89.6727 114.19 89.5688C114.288 89.45 114.449 89.3609 114.673 89.3015C115.08 89.1976 115.641 89.1382 116.356 89.1234C117.085 89.1085 117.59 89.116 117.87 89.1456C118.193 89.1753 118.445 89.2496 118.628 89.3684C118.81 89.4723 119.055 89.7098 119.364 90.081C119.742 90.5561 120.156 90.957 120.605 91.2836C121.067 91.6103 121.783 91.8181 122.75 91.9072V83.578C122.526 83.5038 122.28 83.4221 122.014 83.333C119.406 82.5016 117.471 81.4178 116.209 80.0815C114.947 78.7453 114.316 76.7707 114.316 74.1576C114.316 72.4502 114.687 70.9729 115.43 69.7257C116.174 68.4786 117.176 67.4838 118.438 66.7415C119.714 65.9843 121.152 65.5092 122.75 65.3162V61.8197C122.75 61.3149 122.989 61.0625 123.465 61.0625H125.064C125.569 61.0625 125.821 61.3149 125.821 61.8197V65.2494C127.349 65.3533 128.604 65.5908 129.586 65.962C130.582 66.3332 131.346 66.7415 131.879 67.1869C132.426 67.6175 132.783 67.9812 132.951 68.2782C133.064 68.4712 133.134 68.6196 133.162 68.7236C133.204 68.8126 133.232 68.9388 133.246 69.1022C133.288 69.5624 133.302 70.0746 133.288 70.6388C133.274 71.203 133.225 71.8414 133.141 72.5541C133.099 72.7916 133.021 72.955 132.909 73.044C132.811 73.1183 132.657 73.1554 132.447 73.1554C131.086 73.1851 130.035 73.1109 129.292 72.9327C128.997 72.8585 128.787 72.7842 128.661 72.71C128.548 72.6209 128.394 72.4427 128.198 72.1755C128.001 71.9231 127.728 71.6336 127.377 71.3069C127.027 70.9803 126.508 70.7279 125.821 70.5497V78.5894C126.017 78.6488 126.228 78.7156 126.452 78.7898C128.065 79.3095 129.46 79.9256 130.638 80.6383C131.83 81.351 132.748 82.2715 133.393 83.3998C134.052 84.5282 134.382 85.9832 134.382 87.7649C134.382 89.6356 134.003 91.2168 133.246 92.5085C132.503 93.8002 131.479 94.8172 130.175 95.5596C128.885 96.3019 127.434 96.7844 125.821 97.0071V101.038C125.821 101.543 125.583 101.795 125.106 101.795H123.465ZM120.205 73.534C120.205 74.4842 120.394 75.2488 120.773 75.8279C121.166 76.4069 121.825 76.9265 122.75 77.3868V70.5052C121.053 70.8318 120.205 71.8414 120.205 73.534ZM128.492 88.4553C128.492 87.5496 128.282 86.8147 127.861 86.2505C127.455 85.6863 126.775 85.1815 125.821 84.7361V91.7958C126.69 91.6177 127.349 91.2613 127.798 90.7269C128.261 90.1924 128.492 89.4352 128.492 88.4553Z" fill="#00657C"/>
<path d="M200.021 45.6807V114.904H184.013V109.604H193.964V50.9806H184.013V45.6807H200.021Z" fill="#FFD426"/>
<path d="M43.1429 44.4111V113.635H59.1508V108.335H49.2V49.7111H59.1508V44.4111H43.1429Z" fill="#FFD426"/>
</svg>
