<svg width="682" height="167" viewBox="0 0 682 167" fill="none" xmlns="http://www.w3.org/2000/svg">
<path d="M118.233 135.643C116.443 137.93 114.18 139.696 111.446 140.938C108.711 142.181 105.877 142.803 102.944 142.803C100.16 142.803 97.5247 142.355 95.0387 141.461C92.6025 140.566 90.4646 139.298 88.625 137.657C86.8351 135.967 85.4182 133.953 84.3741 131.616C83.33 129.279 82.8079 126.669 82.8079 123.786C82.8079 120.902 83.33 118.292 84.3741 115.955C85.4182 113.618 86.8351 111.629 88.625 109.989C90.4646 108.298 92.6025 107.005 95.0387 106.11C97.5247 105.216 100.16 104.768 102.944 104.768C105.529 104.768 107.866 105.216 109.954 106.11C112.092 107.005 113.882 108.298 115.324 109.989C116.816 111.629 117.959 113.618 118.755 115.955C119.55 118.292 119.948 120.902 119.948 123.786V127.291H93.9946C94.4421 129.429 95.4116 131.144 96.9032 132.437C98.3948 133.68 100.234 134.301 102.422 134.301C104.262 134.301 105.803 133.903 107.046 133.108C108.339 132.263 109.457 131.194 110.402 129.901L118.233 135.643ZM108.761 119.684C108.811 117.794 108.189 116.179 106.897 114.836C105.604 113.494 103.938 112.823 101.9 112.823C100.657 112.823 99.5631 113.021 98.6185 113.419C97.6738 113.817 96.8535 114.339 96.1574 114.985C95.5111 115.582 94.989 116.303 94.5913 117.148C94.2432 117.944 94.0444 118.789 93.9946 119.684H108.761Z" fill="#FF5740"/>
<path d="M147.26 116.328C145.619 114.289 143.456 113.27 140.771 113.27C139.827 113.27 138.907 113.494 138.012 113.941C137.117 114.389 136.67 115.159 136.67 116.253C136.67 117.148 137.117 117.819 138.012 118.267C138.957 118.664 140.125 119.037 141.517 119.385C142.959 119.684 144.475 120.032 146.066 120.429C147.707 120.778 149.224 121.349 150.616 122.145C152.058 122.94 153.226 124.034 154.121 125.426C155.066 126.769 155.538 128.583 155.538 130.87C155.538 133.207 155.016 135.146 153.972 136.688C152.977 138.179 151.685 139.397 150.094 140.342C148.503 141.237 146.713 141.858 144.724 142.206C142.735 142.604 140.771 142.803 138.832 142.803C136.297 142.803 133.736 142.455 131.151 141.759C128.565 141.013 126.378 139.72 124.588 137.881L131.375 130.348C132.419 131.641 133.562 132.635 134.805 133.332C136.098 133.978 137.589 134.301 139.28 134.301C140.573 134.301 141.741 134.127 142.785 133.779C143.829 133.381 144.351 132.685 144.351 131.691C144.351 130.746 143.879 130.05 142.934 129.603C142.039 129.105 140.871 128.708 139.429 128.409C138.037 128.061 136.52 127.713 134.88 127.365C133.289 126.968 131.772 126.396 130.33 125.65C128.938 124.904 127.77 123.86 126.825 122.518C125.93 121.126 125.483 119.286 125.483 116.999C125.483 114.861 125.906 113.021 126.751 111.48C127.646 109.939 128.789 108.671 130.181 107.677C131.623 106.682 133.264 105.961 135.103 105.514C136.943 105.017 138.808 104.768 140.697 104.768C143.083 104.768 145.495 105.116 147.931 105.812C150.367 106.508 152.43 107.751 154.121 109.541L147.26 116.328Z" fill="#FF5740"/>
<path d="M181.781 116.328C180.141 114.289 177.978 113.27 175.293 113.27C174.348 113.27 173.428 113.494 172.534 113.941C171.639 114.389 171.191 115.159 171.191 116.253C171.191 117.148 171.639 117.819 172.534 118.267C173.478 118.664 174.647 119.037 176.039 119.385C177.481 119.684 178.997 120.032 180.588 120.429C182.229 120.778 183.745 121.349 185.137 122.145C186.579 122.94 187.747 124.034 188.642 125.426C189.587 126.769 190.059 128.583 190.059 130.87C190.059 133.207 189.537 135.146 188.493 136.688C187.499 138.179 186.206 139.397 184.615 140.342C183.024 141.237 181.234 141.858 179.246 142.206C177.257 142.604 175.293 142.803 173.354 142.803C170.818 142.803 168.258 142.455 165.672 141.759C163.087 141.013 160.899 139.72 159.109 137.881L165.896 130.348C166.94 131.641 168.084 132.635 169.327 133.332C170.619 133.978 172.111 134.301 173.801 134.301C175.094 134.301 176.262 134.127 177.307 133.779C178.351 133.381 178.873 132.685 178.873 131.691C178.873 130.746 178.4 130.05 177.456 129.603C176.561 129.105 175.392 128.708 173.951 128.409C172.558 128.061 171.042 127.713 169.401 127.365C167.81 126.968 166.294 126.396 164.852 125.65C163.46 124.904 162.291 123.86 161.347 122.518C160.452 121.126 160.004 119.286 160.004 116.999C160.004 114.861 160.427 113.021 161.272 111.48C162.167 109.939 163.311 108.671 164.703 107.677C166.145 106.682 167.785 105.961 169.625 105.514C171.465 105.017 173.329 104.768 175.218 104.768C177.605 104.768 180.016 105.116 182.452 105.812C184.889 106.508 186.952 107.751 188.642 109.541L181.781 116.328Z" fill="#FF5740"/>
<path d="M230.1 135.643C228.31 137.93 226.048 139.696 223.313 140.938C220.579 142.181 217.745 142.803 214.811 142.803C212.027 142.803 209.392 142.355 206.906 141.461C204.47 140.566 202.332 139.298 200.492 137.657C198.702 135.967 197.285 133.953 196.241 131.616C195.197 129.279 194.675 126.669 194.675 123.786C194.675 120.902 195.197 118.292 196.241 115.955C197.285 113.618 198.702 111.629 200.492 109.989C202.332 108.298 204.47 107.005 206.906 106.11C209.392 105.216 212.027 104.768 214.811 104.768C217.397 104.768 219.733 105.216 221.822 106.11C223.959 107.005 225.749 108.298 227.191 109.989C228.683 111.629 229.826 113.618 230.622 115.955C231.417 118.292 231.815 120.902 231.815 123.786V127.291H205.862C206.309 129.429 207.279 131.144 208.77 132.437C210.262 133.68 212.102 134.301 214.289 134.301C216.129 134.301 217.67 133.903 218.913 133.108C220.206 132.263 221.324 131.194 222.269 129.901L230.1 135.643ZM220.628 119.684C220.678 117.794 220.057 116.179 218.764 114.836C217.471 113.494 215.806 112.823 213.767 112.823C212.524 112.823 211.43 113.021 210.486 113.419C209.541 113.817 208.721 114.339 208.025 114.985C207.378 115.582 206.856 116.303 206.458 117.148C206.11 117.944 205.912 118.789 205.862 119.684H220.628Z" fill="#FF5740"/>
<path d="M238.618 105.663H249.357V110.585H249.506C249.854 109.889 250.352 109.193 250.998 108.497C251.644 107.801 252.415 107.179 253.31 106.633C254.205 106.086 255.224 105.638 256.368 105.29C257.511 104.942 258.754 104.768 260.096 104.768C262.93 104.768 265.217 105.216 266.958 106.11C268.698 106.956 270.04 108.149 270.985 109.69C271.979 111.232 272.65 113.046 272.998 115.134C273.346 117.223 273.52 119.485 273.52 121.921V141.908H262.334V124.158C262.334 123.114 262.284 122.045 262.185 120.952C262.135 119.808 261.911 118.764 261.513 117.819C261.165 116.875 260.594 116.104 259.798 115.507C259.052 114.911 257.959 114.612 256.517 114.612C255.075 114.612 253.906 114.886 253.012 115.433C252.117 115.93 251.42 116.626 250.923 117.521C250.476 118.366 250.178 119.336 250.028 120.429C249.879 121.523 249.805 122.667 249.805 123.86V141.908H238.618V105.663Z" fill="#FF5740"/>
<path d="M306.127 114.612H296.283V126.694C296.283 127.688 296.333 128.608 296.432 129.453C296.532 130.249 296.755 130.945 297.103 131.542C297.452 132.138 297.974 132.611 298.67 132.959C299.415 133.257 300.385 133.406 301.578 133.406C302.175 133.406 302.945 133.356 303.89 133.257C304.884 133.108 305.63 132.809 306.127 132.362V141.684C304.884 142.132 303.592 142.43 302.249 142.579C300.907 142.728 299.589 142.803 298.297 142.803C296.407 142.803 294.667 142.604 293.076 142.206C291.485 141.809 290.093 141.187 288.9 140.342C287.707 139.447 286.762 138.303 286.066 136.911C285.42 135.519 285.096 133.829 285.096 131.84V114.612H277.937V105.663H285.096V94.9238H296.283V105.663H306.127V114.612Z" fill="#FF5740"/>
<path d="M311.961 105.663H323.148V141.908H311.961V105.663ZM311.066 94.2526C311.066 92.4627 311.688 90.9463 312.931 89.7033C314.224 88.4106 315.765 87.7643 317.555 87.7643C319.345 87.7643 320.861 88.4106 322.104 89.7033C323.397 90.9463 324.043 92.4627 324.043 94.2526C324.043 96.0425 323.397 97.5837 322.104 98.8764C320.861 100.119 319.345 100.741 317.555 100.741C315.765 100.741 314.224 100.119 312.931 98.8764C311.688 97.5837 311.066 96.0425 311.066 94.2526Z" fill="#FF5740"/>
<path d="M353.931 137.359H353.782C352.539 139.298 350.874 140.69 348.786 141.535C346.747 142.38 344.584 142.803 342.297 142.803C340.607 142.803 338.966 142.554 337.375 142.057C335.834 141.61 334.467 140.914 333.273 139.969C332.08 139.024 331.135 137.856 330.439 136.464C329.743 135.072 329.395 133.456 329.395 131.616C329.395 129.528 329.768 127.763 330.514 126.321C331.309 124.879 332.353 123.686 333.646 122.741C334.989 121.797 336.505 121.076 338.195 120.579C339.886 120.032 341.626 119.634 343.416 119.385C345.255 119.137 347.07 118.988 348.86 118.938C350.7 118.888 352.39 118.863 353.931 118.863C353.931 116.875 353.21 115.308 351.769 114.165C350.377 112.972 348.711 112.375 346.772 112.375C344.932 112.375 343.242 112.773 341.701 113.568C340.209 114.314 338.867 115.358 337.673 116.701L331.707 110.585C333.795 108.646 336.232 107.204 339.016 106.26C341.8 105.265 344.684 104.768 347.667 104.768C350.948 104.768 353.633 105.191 355.721 106.036C357.859 106.831 359.55 108.025 360.793 109.616C362.085 111.207 362.98 113.171 363.477 115.507C363.975 117.794 364.223 120.454 364.223 123.487V141.908H353.931V137.359ZM351.172 126.023C350.327 126.023 349.258 126.073 347.965 126.172C346.722 126.222 345.504 126.421 344.311 126.769C343.167 127.117 342.173 127.639 341.328 128.335C340.532 129.031 340.134 130 340.134 131.243C340.134 132.586 340.706 133.58 341.85 134.226C342.993 134.873 344.187 135.196 345.43 135.196C346.523 135.196 347.567 135.047 348.562 134.748C349.606 134.45 350.526 134.028 351.321 133.481C352.117 132.934 352.738 132.238 353.186 131.392C353.683 130.547 353.931 129.553 353.931 128.409V126.023H351.172Z" fill="#FF5740"/>
<path d="M371.391 85.5269H382.578V141.908H371.391V85.5269Z" fill="#FF5740"/>
<path d="M411.124 116.328C409.483 114.289 407.32 113.27 404.635 113.27C403.691 113.27 402.771 113.494 401.876 113.941C400.981 114.389 400.533 115.159 400.533 116.253C400.533 117.148 400.981 117.819 401.876 118.267C402.82 118.664 403.989 119.037 405.381 119.385C406.823 119.684 408.339 120.032 409.93 120.429C411.571 120.778 413.087 121.349 414.48 122.145C415.921 122.94 417.09 124.034 417.985 125.426C418.929 126.769 419.402 128.583 419.402 130.87C419.402 133.207 418.88 135.146 417.836 136.688C416.841 138.179 415.548 139.397 413.957 140.342C412.366 141.237 410.577 141.858 408.588 142.206C406.599 142.604 404.635 142.803 402.696 142.803C400.161 142.803 397.6 142.455 395.015 141.759C392.429 141.013 390.242 139.72 388.452 137.881L395.238 130.348C396.282 131.641 397.426 132.635 398.669 133.332C399.962 133.978 401.453 134.301 403.144 134.301C404.436 134.301 405.605 134.127 406.649 133.779C407.693 133.381 408.215 132.685 408.215 131.691C408.215 130.746 407.743 130.05 406.798 129.603C405.903 129.105 404.735 128.708 403.293 128.409C401.901 128.061 400.384 127.713 398.744 127.365C397.153 126.968 395.636 126.396 394.194 125.65C392.802 124.904 391.634 123.86 390.689 122.518C389.794 121.126 389.347 119.286 389.347 116.999C389.347 114.861 389.769 113.021 390.615 111.48C391.509 109.939 392.653 108.671 394.045 107.677C395.487 106.682 397.128 105.961 398.967 105.514C400.807 105.017 402.671 104.768 404.561 104.768C406.947 104.768 409.359 105.116 411.795 105.812C414.231 106.508 416.294 107.751 417.985 109.541L411.124 116.328Z" fill="#FF5740"/>
<path d="M35.4246 74.1165C33.6347 76.4036 31.3725 78.1686 28.638 79.4115C25.9035 80.6545 23.0695 81.276 20.1361 81.276C17.3518 81.276 14.7167 80.8285 12.2308 79.9336C9.79459 79.0386 7.65669 77.7708 5.81709 76.1301C4.02722 74.4397 2.61023 72.4261 1.56614 70.0893C0.522047 67.7525 0 65.1423 0 62.2586C0 59.3749 0.522047 56.7647 1.56614 54.4279C2.61023 52.0911 4.02722 50.1023 5.81709 48.4616C7.65669 46.7712 9.79459 45.4785 12.2308 44.5836C14.7167 43.6886 17.3518 43.2412 20.1361 43.2412C22.7215 43.2412 25.0582 43.6886 27.1464 44.5836C29.2843 45.4785 31.0742 46.7712 32.5161 48.4616C34.0076 50.1023 35.1512 52.0911 35.9467 54.4279C36.7422 56.7647 37.1399 59.3749 37.1399 62.2586V65.7637H11.1867C11.6342 67.9016 12.6037 69.6169 14.0953 70.9096C15.5868 72.1526 17.4264 72.7741 19.614 72.7741C21.4536 72.7741 22.9949 72.3763 24.2379 71.5808C25.5306 70.7356 26.6492 69.6667 27.5939 68.374L35.4246 74.1165ZM25.9532 58.1568C26.0029 56.2675 25.3814 54.6516 24.0887 53.3092C22.796 51.9668 21.1305 51.2956 19.092 51.2956C17.849 51.2956 16.7552 51.4945 15.8106 51.8922C14.8659 52.29 14.0455 52.812 13.3495 53.4584C12.7031 54.055 12.1811 54.7759 11.7833 55.6211C11.4353 56.4166 11.2364 57.2618 11.1867 58.1568H25.9532Z" fill="#00657C"/>
<path d="M43.9428 44.1361H54.6821V49.0582H54.8312C55.1793 48.3622 55.6764 47.6661 56.3228 46.9701C56.9691 46.274 57.7398 45.6525 58.6347 45.1056C59.5296 44.5587 60.5489 44.1112 61.6924 43.7632C62.8359 43.4152 64.0789 43.2412 65.4213 43.2412C67.957 43.2412 70.1943 43.7632 72.1334 44.8073C74.1221 45.8514 75.6137 47.4921 76.608 49.7294C77.9007 47.3927 79.4669 45.7271 81.3065 44.7327C83.1461 43.7383 85.4083 43.2412 88.0931 43.2412C90.5293 43.2412 92.5678 43.6638 94.2085 44.509C95.8989 45.3045 97.2165 46.4232 98.1611 47.865C99.1555 49.2571 99.8515 50.9227 100.249 52.8617C100.697 54.751 100.921 56.7895 100.921 58.9771V80.3811H89.7338V59.2754C89.7338 57.585 89.3609 56.1432 88.6151 54.9499C87.9191 53.7069 86.6512 53.0855 84.8116 53.0855C83.5189 53.0855 82.4251 53.3092 81.5302 53.7567C80.685 54.1544 79.9889 54.7262 79.442 55.472C78.9448 56.2177 78.5719 57.0878 78.3233 58.0822C78.1245 59.0766 78.025 60.1207 78.025 61.2145V80.3811H66.8383V61.2145C66.8383 60.5681 66.8134 59.7726 66.7637 58.828C66.714 57.8833 66.54 56.9884 66.2417 56.1432C65.9434 55.2979 65.4462 54.577 64.7501 53.9804C64.1038 53.3838 63.1343 53.0855 61.8416 53.0855C60.3997 53.0855 59.2313 53.3589 58.3364 53.9058C57.4415 54.403 56.7454 55.0991 56.2482 55.994C55.8007 56.8392 55.5024 57.8087 55.3533 58.9026C55.2041 59.9964 55.1295 61.1399 55.1295 62.3332V80.3811H43.9428V44.1361Z" fill="#00657C"/>
<path d="M109.879 44.1361H120.17V48.9091H120.32C120.767 48.2627 121.339 47.6164 122.035 46.9701C122.781 46.274 123.626 45.6525 124.571 45.1056C125.565 44.5587 126.634 44.1112 127.777 43.7632C128.921 43.4152 130.139 43.2412 131.432 43.2412C134.117 43.2412 136.553 43.7135 138.74 44.6581C140.928 45.5531 142.792 46.8458 144.334 48.5362C145.925 50.1769 147.143 52.1408 147.988 54.4279C148.833 56.7149 149.256 59.2257 149.256 61.9603C149.256 64.4959 148.858 66.9321 148.063 69.2689C147.317 71.556 146.223 73.5944 144.781 75.3843C143.389 77.1742 141.674 78.616 139.635 79.7098C137.597 80.7539 135.285 81.276 132.7 81.276C130.363 81.276 128.175 80.928 126.137 80.2319C124.148 79.4861 122.507 78.2431 121.214 76.503H121.065V97.3849H109.879V44.1361ZM120.17 62.2586C120.17 64.9931 120.941 67.2056 122.482 68.896C124.073 70.5865 126.286 71.4317 129.12 71.4317C131.954 71.4317 134.141 70.5865 135.683 68.896C137.274 67.2056 138.069 64.9931 138.069 62.2586C138.069 59.524 137.274 57.3116 135.683 55.6211C134.141 53.9307 131.954 53.0855 129.12 53.0855C126.286 53.0855 124.073 53.9307 122.482 55.6211C120.941 57.3116 120.17 59.524 120.17 62.2586Z" fill="#00657C"/>
<path d="M154.468 62.2586C154.468 59.3749 154.99 56.7647 156.034 54.4279C157.078 52.0911 158.495 50.1023 160.285 48.4616C162.124 46.7712 164.262 45.4785 166.698 44.5836C169.184 43.6886 171.819 43.2412 174.604 43.2412C177.388 43.2412 179.998 43.6886 182.434 44.5836C184.92 45.4785 187.058 46.7712 188.848 48.4616C190.688 50.1023 192.13 52.0911 193.174 54.4279C194.218 56.7647 194.74 59.3749 194.74 62.2586C194.74 65.1423 194.218 67.7525 193.174 70.0893C192.13 72.4261 190.688 74.4397 188.848 76.1301C187.058 77.7708 184.92 79.0386 182.434 79.9336C179.998 80.8285 177.388 81.276 174.604 81.276C171.819 81.276 169.184 80.8285 166.698 79.9336C164.262 79.0386 162.124 77.7708 160.285 76.1301C158.495 74.4397 157.078 72.4261 156.034 70.0893C154.99 67.7525 154.468 65.1423 154.468 62.2586ZM165.654 62.2586C165.654 64.9931 166.425 67.2056 167.966 68.896C169.557 70.5865 171.77 71.4317 174.604 71.4317C177.438 71.4317 179.625 70.5865 181.167 68.896C182.758 67.2056 183.553 64.9931 183.553 62.2586C183.553 59.524 182.758 57.3116 181.167 55.6211C179.625 53.9307 177.438 53.0855 174.604 53.0855C171.77 53.0855 169.557 53.9307 167.966 55.6211C166.425 57.3116 165.654 59.524 165.654 62.2586Z" fill="#00657C"/>
<path d="M197.003 44.1361H208.936L216.319 66.8824H216.468L222.658 44.1361H234.889L241.601 66.8824H241.75L248.537 44.1361H259.873L246.971 80.3811H235.933L228.401 56.2923H228.252L221.54 80.3811H210.278L197.003 44.1361Z" fill="#00657C"/>
<path d="M297.759 74.1165C295.969 76.4036 293.707 78.1686 290.972 79.4115C288.238 80.6545 285.404 81.276 282.47 81.276C279.686 81.276 277.051 80.8285 274.565 79.9336C272.129 79.0386 269.991 77.7708 268.151 76.1301C266.362 74.4397 264.945 72.4261 263.9 70.0893C262.856 67.7525 262.334 65.1423 262.334 62.2586C262.334 59.3749 262.856 56.7647 263.9 54.4279C264.945 52.0911 266.362 50.1023 268.151 48.4616C269.991 46.7712 272.129 45.4785 274.565 44.5836C277.051 43.6886 279.686 43.2412 282.47 43.2412C285.056 43.2412 287.393 43.6886 289.481 44.5836C291.619 45.4785 293.409 46.7712 294.85 48.4616C296.342 50.1023 297.485 52.0911 298.281 54.4279C299.076 56.7647 299.474 59.3749 299.474 62.2586V65.7637H273.521C273.969 67.9016 274.938 69.6169 276.43 70.9096C277.921 72.1526 279.761 72.7741 281.948 72.7741C283.788 72.7741 285.329 72.3763 286.572 71.5808C287.865 70.7356 288.984 69.6667 289.928 68.374L297.759 74.1165ZM288.288 58.1568C288.337 56.2675 287.716 54.6516 286.423 53.3092C285.13 51.9668 283.465 51.2956 281.426 51.2956C280.183 51.2956 279.09 51.4945 278.145 51.8922C277.2 52.29 276.38 52.812 275.684 53.4584C275.037 54.055 274.515 54.7759 274.118 55.6211C273.77 56.4166 273.571 57.2618 273.521 58.1568H288.288Z" fill="#00657C"/>
<path d="M306.277 44.1361H317.464V49.9532H317.613C318.806 47.7158 320.223 46.0503 321.864 44.9564C323.505 43.8129 325.568 43.2412 328.054 43.2412C328.7 43.2412 329.347 43.266 329.993 43.3157C330.639 43.3655 331.236 43.4649 331.783 43.614V53.8312C330.987 53.5827 330.192 53.4086 329.396 53.3092C328.651 53.16 327.855 53.0855 327.01 53.0855C324.872 53.0855 323.182 53.3838 321.939 53.9804C320.696 54.577 319.726 55.4222 319.03 56.5161C318.384 57.5601 317.961 58.828 317.762 60.3195C317.563 61.8111 317.464 63.4518 317.464 65.2417V80.3811H306.277V44.1361Z" fill="#00657C"/>
<path d="M369.642 74.1165C367.852 76.4036 365.59 78.1686 362.856 79.4115C360.121 80.6545 357.287 81.276 354.354 81.276C351.57 81.276 348.934 80.8285 346.449 79.9336C344.012 79.0386 341.874 77.7708 340.035 76.1301C338.245 74.4397 336.828 72.4261 335.784 70.0893C334.74 67.7525 334.218 65.1423 334.218 62.2586C334.218 59.3749 334.74 56.7647 335.784 54.4279C336.828 52.0911 338.245 50.1023 340.035 48.4616C341.874 46.7712 344.012 45.4785 346.449 44.5836C348.934 43.6886 351.57 43.2412 354.354 43.2412C356.939 43.2412 359.276 43.6886 361.364 44.5836C363.502 45.4785 365.292 46.7712 366.734 48.4616C368.225 50.1023 369.369 52.0911 370.164 54.4279C370.96 56.7647 371.358 59.3749 371.358 62.2586V65.7637H345.404C345.852 67.9016 346.821 69.6169 348.313 70.9096C349.805 72.1526 351.644 72.7741 353.832 72.7741C355.671 72.7741 357.213 72.3763 358.456 71.5808C359.748 70.7356 360.867 69.6667 361.812 68.374L369.642 74.1165ZM360.171 58.1568C360.221 56.2675 359.599 54.6516 358.306 53.3092C357.014 51.9668 355.348 51.2956 353.31 51.2956C352.067 51.2956 350.973 51.4945 350.028 51.8922C349.084 52.29 348.263 52.812 347.567 53.4584C346.921 54.055 346.399 54.7759 346.001 55.6211C345.653 56.4166 345.454 57.2618 345.404 58.1568H360.171Z" fill="#00657C"/>
<path d="M416.195 80.3811H405.904V75.6081H405.754C405.307 76.2544 404.71 76.9256 403.965 77.6217C403.269 78.268 402.423 78.8646 401.429 79.4115C400.484 79.9584 399.415 80.4059 398.222 80.7539C397.079 81.102 395.885 81.276 394.642 81.276C391.958 81.276 389.521 80.8285 387.334 79.9336C385.146 78.9889 383.257 77.6962 381.666 76.0555C380.124 74.3651 378.931 72.3763 378.086 70.0893C377.241 67.8022 376.818 65.2914 376.818 62.5569C376.818 60.0212 377.191 57.6099 377.937 55.3228C378.732 52.986 379.826 50.9227 381.218 49.1328C382.66 47.3429 384.4 45.926 386.439 44.8819C388.477 43.7881 390.789 43.2412 393.374 43.2412C395.711 43.2412 397.874 43.614 399.863 44.3598C401.901 45.0559 403.567 46.274 404.86 48.0142H405.009V24H416.195V80.3811ZM405.904 62.2586C405.904 59.524 405.108 57.3116 403.517 55.6211C401.976 53.9307 399.788 53.0855 396.954 53.0855C394.12 53.0855 391.908 53.9307 390.317 55.6211C388.776 57.3116 388.005 59.524 388.005 62.2586C388.005 64.9931 388.776 67.2056 390.317 68.896C391.908 70.5865 394.12 71.4317 396.954 71.4317C399.788 71.4317 401.976 70.5865 403.517 68.896C405.108 67.2056 405.904 64.9931 405.904 62.2586Z" fill="#00657C"/>
<g clip-path="url(#clip0_3912_2)">
<path d="M521.626 64.545C528.623 64.545 534.295 58.3931 534.295 50.8045C534.295 43.2158 528.623 37.064 521.626 37.064C514.629 37.064 508.957 43.2158 508.957 50.8045C508.957 58.3931 514.629 64.545 521.626 64.545Z" fill="#FF5740"/>
<path d="M492.065 92.0258C492.065 80.7515 501.567 66.6587 520.57 66.6587C539.574 66.6587 549.076 80.7515 549.076 92.0258H492.065Z" fill="#FF5740"/>
<path d="M603.606 138.975C606.278 141.583 606.31 145.863 603.68 148.532C601.051 151.201 596.752 151.252 594.081 148.643L555.605 111.073L565.128 101.405L603.606 138.975Z" fill="#FFD426" stroke="#00657C" stroke-width="0.1" stroke-linecap="round"/>
<path d="M561.983 68.4888C561.983 46.2377 543.872 28.2615 521.609 28.2612C499.345 28.2612 481.234 46.2376 481.234 68.4888C481.234 90.7399 499.345 108.716 521.609 108.716C543.871 108.716 561.983 90.7398 561.983 68.4888ZM573.481 68.4888C573.481 96.9525 550.291 120.09 521.609 120.09C492.926 120.09 469.736 96.9527 469.736 68.4888C469.736 40.0248 492.926 16.8877 521.609 16.8877C550.291 16.8879 573.481 40.0249 573.481 68.4888Z" fill="#FFD426" stroke="#00657C" stroke-width="0.1"/>
</g>
<defs>
<clipPath id="clip0_3912_2">
<rect width="141.471" height="167" fill="white" transform="translate(464.077)"/>
</clipPath>
</defs>
</svg>
