<svg width="670" height="167" viewBox="0 0 670 167" fill="none" xmlns="http://www.w3.org/2000/svg">
<path d="M142.856 106.526C142.325 105.751 141.577 105.121 140.612 104.637C139.647 104.104 138.61 103.837 137.5 103.837C134.75 103.837 132.603 104.661 131.059 106.308C129.563 107.955 128.815 110.111 128.815 112.775C128.815 115.439 129.563 117.595 131.059 119.242C132.603 120.889 134.75 121.713 137.5 121.713C138.706 121.713 139.743 121.446 140.612 120.913C141.48 120.381 142.228 119.751 142.856 119.024L150.02 126.581C148.332 128.325 146.329 129.561 144.013 130.287C141.746 130.965 139.575 131.305 137.5 131.305C134.798 131.305 132.241 130.869 129.828 129.997C127.464 129.125 125.39 127.889 123.604 126.291C121.867 124.644 120.492 122.682 119.479 120.405C118.466 118.128 117.959 115.585 117.959 112.775C117.959 109.965 118.466 107.422 119.479 105.145C120.492 102.869 121.867 100.931 123.604 99.3322C125.39 97.6851 127.464 96.4256 129.828 95.5536C132.241 94.6817 134.798 94.2457 137.5 94.2457C139.575 94.2457 141.746 94.609 144.013 95.3356C146.329 96.0138 148.332 97.2249 150.02 98.9689L142.856 106.526Z" fill="#FF5740"/>
<path d="M152.656 112.775C152.656 109.965 153.163 107.422 154.176 105.145C155.189 102.869 156.565 100.931 158.301 99.3322C160.087 97.6851 162.161 96.4256 164.526 95.5536C166.938 94.6817 169.495 94.2457 172.197 94.2457C174.899 94.2457 177.432 94.6817 179.796 95.5536C182.209 96.4256 184.283 97.6851 186.02 99.3322C187.805 100.931 189.205 102.869 190.218 105.145C191.231 107.422 191.738 109.965 191.738 112.775C191.738 115.585 191.231 118.128 190.218 120.405C189.205 122.682 187.805 124.644 186.02 126.291C184.283 127.889 182.209 129.125 179.796 129.997C177.432 130.869 174.899 131.305 172.197 131.305C169.495 131.305 166.938 130.869 164.526 129.997C162.161 129.125 160.087 127.889 158.301 126.291C156.565 124.644 155.189 122.682 154.176 120.405C153.163 118.128 152.656 115.585 152.656 112.775ZM163.512 112.775C163.512 115.439 164.26 117.595 165.756 119.242C167.3 120.889 169.447 121.713 172.197 121.713C174.947 121.713 177.07 120.889 178.566 119.242C180.11 117.595 180.882 115.439 180.882 112.775C180.882 110.111 180.11 107.955 178.566 106.308C177.07 104.661 174.947 103.837 172.197 103.837C169.447 103.837 167.3 104.661 165.756 106.308C164.26 107.955 163.512 110.111 163.512 112.775Z" fill="#FF5740"/>
<path d="M198.132 95.1176H208.554V99.9135H208.698C209.036 99.2353 209.519 98.5571 210.146 97.8789C210.773 97.2007 211.521 96.5952 212.389 96.0623C213.258 95.5294 214.247 95.0934 215.357 94.7543C216.466 94.4152 217.673 94.2457 218.975 94.2457C221.436 94.2457 223.607 94.7543 225.489 95.7716C227.419 96.7889 228.866 98.3875 229.831 100.567C231.086 98.2907 232.606 96.6678 234.391 95.699C236.176 94.7301 238.371 94.2457 240.977 94.2457C243.341 94.2457 245.319 94.6574 246.911 95.481C248.552 96.2561 249.83 97.346 250.747 98.7509C251.712 100.107 252.387 101.73 252.773 103.619C253.208 105.46 253.425 107.446 253.425 109.578V130.433H242.569V109.869C242.569 108.221 242.207 106.817 241.483 105.654C240.808 104.443 239.578 103.837 237.792 103.837C236.538 103.837 235.476 104.055 234.608 104.491C233.788 104.879 233.112 105.436 232.581 106.163C232.099 106.889 231.737 107.737 231.496 108.706C231.303 109.675 231.206 110.692 231.206 111.758V130.433H220.35V111.758C220.35 111.128 220.326 110.353 220.278 109.433C220.23 108.512 220.061 107.64 219.771 106.817C219.482 105.993 218.999 105.291 218.324 104.709C217.697 104.128 216.756 103.837 215.501 103.837C214.102 103.837 212.968 104.104 212.1 104.637C211.231 105.121 210.556 105.799 210.073 106.671C209.639 107.495 209.35 108.439 209.205 109.505C209.06 110.571 208.988 111.685 208.988 112.848V130.433H198.132V95.1176Z" fill="#FF5740"/>
<path d="M262.118 95.1176H272.106V99.7682H272.25C272.684 99.1384 273.239 98.5087 273.915 97.8789C274.639 97.2007 275.459 96.5952 276.375 96.0623C277.34 95.5294 278.378 95.0934 279.488 94.7543C280.597 94.4152 281.779 94.2457 283.034 94.2457C285.639 94.2457 288.003 94.7059 290.126 95.6263C292.249 96.4983 294.059 97.7578 295.554 99.4048C297.098 101.003 298.28 102.917 299.101 105.145C299.921 107.374 300.331 109.82 300.331 112.484C300.331 114.955 299.945 117.329 299.173 119.606C298.449 121.834 297.388 123.82 295.989 125.564C294.638 127.308 292.973 128.713 290.995 129.779C289.017 130.796 286.773 131.305 284.264 131.305C281.996 131.305 279.874 130.965 277.895 130.287C275.965 129.561 274.373 128.349 273.119 126.654H272.974V147H262.118V95.1176ZM272.106 112.775C272.106 115.439 272.853 117.595 274.349 119.242C275.893 120.889 278.04 121.713 280.79 121.713C283.54 121.713 285.663 120.889 287.159 119.242C288.703 117.595 289.475 115.439 289.475 112.775C289.475 110.111 288.703 107.955 287.159 106.308C285.663 104.661 283.54 103.837 280.79 103.837C278.04 103.837 275.893 104.661 274.349 106.308C272.853 107.955 272.106 110.111 272.106 112.775Z" fill="#FF5740"/>
<path d="M328.765 126H328.62C327.414 127.889 325.798 129.246 323.771 130.069C321.793 130.893 319.694 131.305 317.475 131.305C315.834 131.305 314.242 131.062 312.698 130.578C311.202 130.142 309.876 129.464 308.718 128.543C307.56 127.623 306.643 126.484 305.968 125.128C305.292 123.772 304.954 122.197 304.954 120.405C304.954 118.37 305.316 116.651 306.04 115.246C306.812 113.841 307.825 112.678 309.08 111.758C310.382 110.837 311.854 110.135 313.494 109.651C315.135 109.118 316.823 108.73 318.56 108.488C320.346 108.246 322.107 108.1 323.844 108.052C325.629 108.003 327.269 107.979 328.765 107.979C328.765 106.042 328.065 104.516 326.666 103.401C325.315 102.239 323.699 101.657 321.817 101.657C320.032 101.657 318.392 102.045 316.896 102.82C315.448 103.547 314.146 104.564 312.988 105.872L307.198 99.9135C309.224 98.0242 311.588 96.6194 314.29 95.699C316.992 94.7301 319.791 94.2457 322.686 94.2457C325.87 94.2457 328.475 94.6574 330.502 95.481C332.577 96.2561 334.217 97.4187 335.423 98.9689C336.678 100.519 337.546 102.433 338.029 104.709C338.511 106.938 338.752 109.529 338.752 112.484V130.433H328.765V126ZM326.087 114.955C325.267 114.955 324.23 115.003 322.975 115.1C321.769 115.149 320.587 115.343 319.429 115.682C318.319 116.021 317.354 116.529 316.534 117.208C315.762 117.886 315.376 118.83 315.376 120.042C315.376 121.349 315.931 122.318 317.041 122.948C318.15 123.578 319.308 123.893 320.514 123.893C321.576 123.893 322.589 123.747 323.554 123.457C324.567 123.166 325.46 122.754 326.232 122.221C327.004 121.689 327.607 121.01 328.041 120.187C328.524 119.363 328.765 118.394 328.765 117.28V114.955H326.087Z" fill="#FF5740"/>
<path d="M365.466 105.509C363.874 103.522 361.775 102.529 359.169 102.529C358.253 102.529 357.36 102.747 356.492 103.183C355.623 103.619 355.189 104.37 355.189 105.436C355.189 106.308 355.623 106.962 356.492 107.398C357.408 107.785 358.542 108.149 359.893 108.488C361.292 108.779 362.764 109.118 364.308 109.505C365.9 109.844 367.372 110.401 368.723 111.176C370.122 111.952 371.256 113.017 372.124 114.374C373.041 115.682 373.499 117.45 373.499 119.678C373.499 121.955 372.993 123.844 371.979 125.346C371.014 126.799 369.76 127.986 368.216 128.907C366.672 129.779 364.935 130.384 363.005 130.723C361.075 131.111 359.169 131.305 357.288 131.305C354.827 131.305 352.342 130.965 349.833 130.287C347.324 129.561 345.202 128.301 343.465 126.509L350.05 119.17C351.064 120.429 352.173 121.398 353.38 122.076C354.634 122.706 356.082 123.021 357.722 123.021C358.976 123.021 360.11 122.851 361.124 122.512C362.137 122.125 362.643 121.446 362.643 120.478C362.643 119.557 362.185 118.879 361.268 118.443C360.4 117.958 359.266 117.571 357.867 117.28C356.516 116.941 355.044 116.602 353.452 116.263C351.908 115.875 350.436 115.318 349.037 114.592C347.686 113.865 346.552 112.848 345.636 111.54C344.767 110.183 344.333 108.391 344.333 106.163C344.333 104.08 344.743 102.287 345.563 100.785C346.432 99.2837 347.542 98.0484 348.893 97.0796C350.292 96.1107 351.884 95.4083 353.669 94.9723C355.454 94.4879 357.264 94.2457 359.097 94.2457C361.413 94.2457 363.753 94.5848 366.117 95.263C368.481 95.9412 370.484 97.1523 372.124 98.8962L365.466 105.509Z" fill="#FF5740"/>
<path d="M398.967 105.509C397.374 103.522 395.276 102.529 392.67 102.529C391.753 102.529 390.861 102.747 389.992 103.183C389.124 103.619 388.69 104.37 388.69 105.436C388.69 106.308 389.124 106.962 389.992 107.398C390.909 107.785 392.043 108.149 393.394 108.488C394.793 108.779 396.265 109.118 397.809 109.505C399.401 109.844 400.872 110.401 402.223 111.176C403.623 111.952 404.756 113.017 405.625 114.374C406.542 115.682 407 117.45 407 119.678C407 121.955 406.493 123.844 405.48 125.346C404.515 126.799 403.261 127.986 401.717 128.907C400.173 129.779 398.436 130.384 396.506 130.723C394.576 131.111 392.67 131.305 390.788 131.305C388.328 131.305 385.843 130.965 383.334 130.287C380.825 129.561 378.702 128.301 376.965 126.509L383.551 119.17C384.564 120.429 385.674 121.398 386.88 122.076C388.135 122.706 389.582 123.021 391.223 123.021C392.477 123.021 393.611 122.851 394.624 122.512C395.637 122.125 396.144 121.446 396.144 120.478C396.144 119.557 395.686 118.879 394.769 118.443C393.901 117.958 392.767 117.571 391.367 117.28C390.017 116.941 388.545 116.602 386.953 116.263C385.409 115.875 383.937 115.318 382.538 114.592C381.187 113.865 380.053 112.848 379.136 111.54C378.268 110.183 377.834 108.391 377.834 106.163C377.834 104.08 378.244 102.287 379.064 100.785C379.933 99.2837 381.042 98.0484 382.393 97.0796C383.792 96.1107 385.385 95.4083 387.17 94.9723C388.955 94.4879 390.764 94.2457 392.598 94.2457C394.914 94.2457 397.254 94.5848 399.618 95.263C401.982 95.9412 403.984 97.1523 405.625 98.8962L398.967 105.509Z" fill="#FF5740"/>
<path d="M34.3771 69.8305C32.6402 72.0588 30.4448 73.7785 27.7912 74.9896C25.1375 76.2007 22.3873 76.8062 19.5407 76.8062C16.8387 76.8062 14.2816 76.3702 11.8691 75.4983C9.50497 74.6263 7.43028 73.391 5.64508 71.7924C3.90813 70.1453 2.53305 68.1834 1.51983 65.9066C0.50661 63.6298 0 61.0865 0 58.2768C0 55.4671 0.50661 52.9239 1.51983 50.6471C2.53305 48.3702 3.90813 46.4325 5.64508 44.8339C7.43028 43.1869 9.50497 41.9273 11.8691 41.0554C14.2816 40.1834 16.8387 39.7474 19.5407 39.7474C22.0496 39.7474 24.3173 40.1834 26.3437 41.0554C28.4184 41.9273 30.1554 43.1869 31.5546 44.8339C33.002 46.4325 34.1117 48.3702 34.8837 50.6471C35.6557 52.9239 36.0417 55.4671 36.0417 58.2768V61.692H10.8559C11.2902 63.7751 12.231 65.4464 13.6785 66.7059C15.1259 67.917 16.9111 68.5225 19.0341 68.5225C20.8193 68.5225 22.315 68.1349 23.5212 67.3599C24.7756 66.5363 25.8612 65.4948 26.778 64.2353L34.3771 69.8305ZM25.1858 54.2803C25.234 52.4394 24.6309 50.8651 23.3764 49.5571C22.122 48.2491 20.5056 47.5952 18.5274 47.5952C17.3212 47.5952 16.2598 47.7889 15.343 48.1765C14.4263 48.564 13.6302 49.0727 12.9547 49.7024C12.3275 50.2837 11.8209 50.9862 11.4349 51.8097C11.0972 52.5848 10.9042 53.4083 10.8559 54.2803H25.1858Z" fill="#1DA8C6"/>
<path d="M42.6434 40.6194H53.0651V45.4152H53.2099C53.5476 44.737 54.0301 44.0588 54.6573 43.3806C55.2846 42.7024 56.0324 42.0969 56.9009 41.564C57.7694 41.0311 58.7585 40.5952 59.8682 40.2561C60.9779 39.917 62.1841 39.7474 63.4868 39.7474C65.9475 39.7474 68.1187 40.2561 70.0004 41.2734C71.9303 42.2907 73.3778 43.8893 74.3427 46.0692C75.5972 43.7924 77.117 42.1696 78.9022 41.2007C80.6874 40.2318 82.8827 39.7474 85.4882 39.7474C87.8523 39.7474 89.8305 40.1592 91.4227 40.9827C93.0632 41.7578 94.3418 42.8478 95.2585 44.2526C96.2235 45.609 96.8989 47.2318 97.2849 49.1211C97.7192 50.9619 97.9363 52.9481 97.9363 55.0796V75.9343H87.0804V55.3702C87.0804 53.7232 86.7185 52.3183 85.9948 51.1557C85.3193 49.9446 84.089 49.3391 82.3038 49.3391C81.0493 49.3391 79.9878 49.5571 79.1194 49.9931C78.2991 50.3806 77.6237 50.9377 77.0929 51.6644C76.6104 52.391 76.2486 53.2388 76.0073 54.2076C75.8143 55.1765 75.7178 56.1938 75.7178 57.2595V75.9343H64.8619V57.2595C64.8619 56.6298 64.8378 55.8547 64.7895 54.9343C64.7413 54.0138 64.5724 53.1419 64.2829 52.3183C63.9934 51.4948 63.5109 50.7924 62.8355 50.2111C62.2082 49.6298 61.2674 49.3391 60.0129 49.3391C58.6137 49.3391 57.4799 49.6055 56.6114 50.1384C55.7429 50.6228 55.0674 51.301 54.585 52.173C54.1507 52.9965 53.8612 53.9412 53.7165 55.0069C53.5717 56.0727 53.4994 57.1869 53.4994 58.3495V75.9343H42.6434V40.6194Z" fill="#1DA8C6"/>
<path d="M106.63 40.6194H116.617V45.2699H116.762C117.196 44.6401 117.751 44.0104 118.426 43.3806C119.15 42.7024 119.97 42.0969 120.887 41.564C121.852 41.0311 122.889 40.5952 123.999 40.2561C125.109 39.917 126.291 39.7474 127.545 39.7474C130.151 39.7474 132.515 40.2076 134.638 41.128C136.761 42 138.57 43.2595 140.066 44.9066C141.61 46.5052 142.792 48.4187 143.612 50.6471C144.432 52.8754 144.842 55.3218 144.842 57.9862C144.842 60.4567 144.456 62.8305 143.684 65.1073C142.961 67.3356 141.899 69.3218 140.5 71.0657C139.149 72.8097 137.484 74.2145 135.506 75.2803C133.528 76.2976 131.285 76.8062 128.776 76.8062C126.508 76.8062 124.385 76.4671 122.407 75.7889C120.477 75.0623 118.885 73.8512 117.63 72.1557H117.485V92.5017H106.63V40.6194ZM116.617 58.2768C116.617 60.9412 117.365 63.0969 118.861 64.7439C120.404 66.391 122.552 67.2145 125.302 67.2145C128.052 67.2145 130.175 66.391 131.671 64.7439C133.214 63.0969 133.986 60.9412 133.986 58.2768C133.986 55.6125 133.214 53.4568 131.671 51.8097C130.175 50.1626 128.052 49.3391 125.302 49.3391C122.552 49.3391 120.404 50.1626 118.861 51.8097C117.365 53.4568 116.617 55.6125 116.617 58.2768Z" fill="#1DA8C6"/>
<path d="M149.9 58.2768C149.9 55.4671 150.407 52.9239 151.42 50.6471C152.433 48.3702 153.808 46.4325 155.545 44.8339C157.33 43.1869 159.405 41.9273 161.769 41.0554C164.182 40.1834 166.739 39.7474 169.441 39.7474C172.143 39.7474 174.676 40.1834 177.04 41.0554C179.452 41.9273 181.527 43.1869 183.264 44.8339C185.049 46.4325 186.448 48.3702 187.462 50.6471C188.475 52.9239 188.981 55.4671 188.981 58.2768C188.981 61.0865 188.475 63.6298 187.462 65.9066C186.448 68.1834 185.049 70.1453 183.264 71.7924C181.527 73.391 179.452 74.6263 177.04 75.4983C174.676 76.3702 172.143 76.8062 169.441 76.8062C166.739 76.8062 164.182 76.3702 161.769 75.4983C159.405 74.6263 157.33 73.391 155.545 71.7924C153.808 70.1453 152.433 68.1834 151.42 65.9066C150.407 63.6298 149.9 61.0865 149.9 58.2768ZM160.756 58.2768C160.756 60.9412 161.504 63.0969 162.999 64.7439C164.543 66.391 166.69 67.2145 169.441 67.2145C172.191 67.2145 174.314 66.391 175.809 64.7439C177.353 63.0969 178.125 60.9412 178.125 58.2768C178.125 55.6125 177.353 53.4568 175.809 51.8097C174.314 50.1626 172.191 49.3391 169.441 49.3391C166.69 49.3391 164.543 50.1626 162.999 51.8097C161.504 53.4568 160.756 55.6125 160.756 58.2768Z" fill="#1DA8C6"/>
<path d="M191.178 40.6194H202.758L209.923 62.782H210.067L216.074 40.6194H227.943L234.457 62.782H234.602L241.188 40.6194H252.188L239.668 75.9343H228.957L221.647 52.4637H221.502L214.989 75.9343H204.06L191.178 40.6194Z" fill="#1DA8C6"/>
<path d="M288.954 69.8305C287.217 72.0588 285.022 73.7785 282.368 74.9896C279.715 76.2007 276.964 76.8062 274.118 76.8062C271.416 76.8062 268.859 76.3702 266.446 75.4983C264.082 74.6263 262.007 73.391 260.222 71.7924C258.485 70.1453 257.11 68.1834 256.097 65.9066C255.084 63.6298 254.577 61.0865 254.577 58.2768C254.577 55.4671 255.084 52.9239 256.097 50.6471C257.11 48.3702 258.485 46.4325 260.222 44.8339C262.007 43.1869 264.082 41.9273 266.446 41.0554C268.859 40.1834 271.416 39.7474 274.118 39.7474C276.627 39.7474 278.894 40.1834 280.921 41.0554C282.996 41.9273 284.732 43.1869 286.132 44.8339C287.579 46.4325 288.689 48.3702 289.461 50.6471C290.233 52.9239 290.619 55.4671 290.619 58.2768V61.692H265.433C265.867 63.7751 266.808 65.4464 268.256 66.7059C269.703 67.917 271.488 68.5225 273.611 68.5225C275.396 68.5225 276.892 68.1349 278.098 67.3599C279.353 66.5363 280.438 65.4948 281.355 64.2353L288.954 69.8305ZM279.763 54.2803C279.811 52.4394 279.208 50.8651 277.954 49.5571C276.699 48.2491 275.083 47.5952 273.105 47.5952C271.898 47.5952 270.837 47.7889 269.92 48.1765C269.003 48.564 268.207 49.0727 267.532 49.7024C266.905 50.2837 266.398 50.9862 266.012 51.8097C265.674 52.5848 265.481 53.4083 265.433 54.2803H279.763Z" fill="#1DA8C6"/>
<path d="M297.221 40.6194H308.077V46.2872H308.221C309.379 44.1073 310.754 42.4844 312.347 41.4187C313.939 40.3045 315.941 39.7474 318.353 39.7474C318.981 39.7474 319.608 39.7716 320.235 39.8201C320.862 39.8685 321.441 39.9654 321.972 40.1107V50.0657C321.2 49.8235 320.428 49.654 319.656 49.5571C318.932 49.4118 318.16 49.3391 317.34 49.3391C315.266 49.3391 313.625 49.6298 312.419 50.2111C311.213 50.7924 310.272 51.6159 309.596 52.6817C308.969 53.699 308.559 54.9343 308.366 56.3875C308.173 57.8408 308.077 59.4394 308.077 61.1834V75.9343H297.221V40.6194Z" fill="#1DA8C6"/>
<path d="M358.712 69.8305C356.975 72.0588 354.78 73.7785 352.126 74.9896C349.472 76.2007 346.722 76.8062 343.876 76.8062C341.174 76.8062 338.617 76.3702 336.204 75.4983C333.84 74.6263 331.765 73.391 329.98 71.7924C328.243 70.1453 326.868 68.1834 325.855 65.9066C324.842 63.6298 324.335 61.0865 324.335 58.2768C324.335 55.4671 324.842 52.9239 325.855 50.6471C326.868 48.3702 328.243 46.4325 329.98 44.8339C331.765 43.1869 333.84 41.9273 336.204 41.0554C338.617 40.1834 341.174 39.7474 343.876 39.7474C346.385 39.7474 348.652 40.1834 350.679 41.0554C352.753 41.9273 354.49 43.1869 355.89 44.8339C357.337 46.4325 358.447 48.3702 359.219 50.6471C359.991 52.9239 360.377 55.4671 360.377 58.2768V61.692H335.191C335.625 63.7751 336.566 65.4464 338.013 66.7059C339.461 67.917 341.246 68.5225 343.369 68.5225C345.154 68.5225 346.65 68.1349 347.856 67.3599C349.111 66.5363 350.196 65.4948 351.113 64.2353L358.712 69.8305ZM349.521 54.2803C349.569 52.4394 348.966 50.8651 347.711 49.5571C346.457 48.2491 344.841 47.5952 342.862 47.5952C341.656 47.5952 340.595 47.7889 339.678 48.1765C338.761 48.564 337.965 49.0727 337.29 49.7024C336.662 50.2837 336.156 50.9862 335.77 51.8097C335.432 52.5848 335.239 53.4083 335.191 54.2803H349.521Z" fill="#1DA8C6"/>
<path d="M403.889 75.9343H393.901V71.2837H393.756C393.322 71.9135 392.743 72.5675 392.019 73.2457C391.344 73.8754 390.524 74.4568 389.559 74.9896C388.642 75.5225 387.605 75.9585 386.447 76.2976C385.337 76.6367 384.179 76.8062 382.973 76.8062C380.367 76.8062 378.003 76.3702 375.88 75.4983C373.757 74.5779 371.924 73.3183 370.38 71.7197C368.884 70.0727 367.726 68.135 366.906 65.9066C366.086 63.6782 365.676 61.2318 365.676 58.5675C365.676 56.0969 366.038 53.7474 366.761 51.519C367.533 49.2422 368.595 47.2318 369.946 45.4879C371.345 43.7439 373.034 42.3633 375.012 41.346C376.99 40.2803 379.234 39.7474 381.742 39.7474C384.01 39.7474 386.109 40.1107 388.039 40.8374C390.017 41.5156 391.633 42.7024 392.888 44.3979H393.033V21H403.889V75.9343ZM393.901 58.2768C393.901 55.6125 393.129 53.4568 391.585 51.8097C390.089 50.1626 387.967 49.3391 385.216 49.3391C382.466 49.3391 380.319 50.1626 378.775 51.8097C377.279 53.4568 376.532 55.6125 376.532 58.2768C376.532 60.9412 377.279 63.0969 378.775 64.7439C380.319 66.391 382.466 67.2145 385.216 67.2145C387.967 67.2145 390.089 66.391 391.585 64.7439C393.129 63.0969 393.901 60.9412 393.901 58.2768Z" fill="#1DA8C6"/>
<path d="M532.5 14.9107L589.161 50.6964V116.304L532.5 152.089L475.839 120.754V50.6964L532.5 14.9107Z" stroke="#C6CCDA" stroke-width="0.75"/>
<path d="M532.5 37.254L566.588 62.717L565.304 102.769L532.5 128.232L499.696 107.357L499.1 64.2309L532.5 37.254Z" stroke="#C6CCDA" stroke-width="0.75"/>
<path d="M532.5 62.625L547.411 71.5714V95.4286L532.5 104.375L517.589 95.4286V71.5714L532.5 62.625Z" stroke="#C6CCDA" stroke-width="0.75"/>
<path d="M532.5 8.94641V158.054" stroke="#C6CCDA" stroke-width="0.75"/>
<path d="M463.911 44.8699L595.446 120.754" stroke="#C6CCDA" stroke-width="0.75"/>
<path d="M600.585 46.2462L472.123 123.323" stroke="#C6CCDA" stroke-width="0.75"/>
<path d="M533.835 35.9692L499.696 63.6191V107.357L533.835 131.031L589.161 115.31V52.6846L533.835 35.9692Z" fill="#1DA8C6" fill-opacity="0.15" stroke="#1DA8C6" stroke-width="3.5"/>
<path d="M532.041 30.9557C535.266 30.9557 537.88 33.5699 537.881 36.7946C537.881 40.0196 535.266 42.6345 532.041 42.6345C528.816 42.6342 526.202 40.0194 526.202 36.7946C526.202 33.57 528.816 30.956 532.041 30.9557Z" fill="#FED12E" stroke="#1DA8C6" stroke-width="0.25"/>
<path d="M588.564 48.9404C591.789 48.9404 594.403 51.5545 594.404 54.7792C594.404 58.0042 591.789 60.6191 588.564 60.6191C585.339 60.6189 582.725 58.004 582.725 54.7792C582.725 51.5546 585.339 48.9406 588.564 48.9404Z" fill="#FED12E" stroke="#1DA8C6" stroke-width="0.25"/>
<path d="M587.983 108.614C591.208 108.614 593.822 111.228 593.823 114.453C593.823 117.678 591.208 120.292 587.983 120.292C584.758 120.292 582.144 117.677 582.144 114.453C582.144 111.228 584.758 108.614 587.983 108.614Z" fill="#FED12E" stroke="#1DA8C6" stroke-width="0.25"/>
<path d="M534.61 123.448C537.835 123.448 540.45 126.062 540.45 129.287C540.45 132.512 537.835 135.127 534.61 135.127C531.385 135.127 528.771 132.512 528.771 129.287C528.771 126.062 531.385 123.448 534.61 123.448Z" fill="#FED12E" stroke="#1DA8C6" stroke-width="0.25"/>
<path d="M499.222 101.151C502.447 101.151 505.062 103.765 505.062 106.99C505.062 110.215 502.447 112.83 499.222 112.83C495.997 112.829 493.383 110.215 493.383 106.99C493.383 103.765 495.997 101.151 499.222 101.151Z" fill="#FED12E" stroke="#1DA8C6" stroke-width="0.25"/>
<path d="M501.21 58.055C504.435 58.055 507.05 60.6691 507.05 63.8939C507.05 67.1188 504.435 69.7337 501.21 69.7337C497.985 69.7335 495.371 67.1187 495.371 63.8939C495.371 60.6692 497.985 58.0552 501.21 58.055Z" fill="#FED12E" stroke="#1DA8C6" stroke-width="0.25"/>
<path d="M532.5 158.054C573.675 158.054 607.054 124.675 607.054 83.5C607.054 42.3252 573.675 8.94641 532.5 8.94641C491.325 8.94641 457.946 42.3252 457.946 83.5C457.946 124.675 491.325 158.054 532.5 158.054Z" stroke="#FF5740" stroke-width="6"/>
</svg>
